<?xml version="1.0" encoding="utf-8"?>
<!-- Generator: Adobe Illustrator 27.1.1, SVG Export Plug-In . SVG Version: 6.00 Build 0)  -->
<svg version="1.1" id="Layer_1" xmlns="http://www.w3.org/2000/svg" xmlns:xlink="http://www.w3.org/1999/xlink" x="0px" y="0px"
	 viewBox="0 0 30.8 122.9" style="enable-background:new 0 0 30.8 122.9;" xml:space="preserve">
<style type="text/css">
	.st0{fill:#9D7D2D;}
</style>
<g>
	<g>
		<g>
			<g id="XMLID_00000042017207471182257760000010951321841069353124_">
				<g>
					<g>
						<path class="st0" d="M20.3,26.3c-0.5,0-0.7-0.2-0.8-0.4c-0.2-0.3-0.3-0.7-0.1-1.2c0.2-0.4,0.5-0.9,0.9-1.3
							c0.9-0.9,2.9-3.2,2.9-3.2c0.1-0.2,0.4-0.2,0.5,0c0.2,0.1,0.2,0.4,0,0.5c-0.1,0.1-2,2.4-3,3.3c-0.3,0.3-0.5,0.6-0.7,1
							c-0.1,0.3-0.1,0.4,0,0.5c0,0.1,0.1,0.1,0.3,0.1c1-0.1,5.2-3.6,5.7-4.7v-0.1c0.5-1.2,0.7-1.8,2.6-3.1c0.2-0.2,0.5-0.3,0.6-0.4
							c0.4-0.3,0.8-0.5,0.8-0.6s-0.3-0.6-0.5-0.8c-0.6-0.8-0.9-3.2-1.2-5.8c-0.2-1.9-0.4-3.8-0.8-4.8C26.9,3.6,20.7,2.2,17,1.4
							c-0.7-0.2-1.4-0.3-2-0.5C13.9,0.6,13,1,12.2,2c-0.6,0.7-0.8,1.6-0.8,1.6s0,0,0,0.1c-0.1,0.2-0.3,0.3-0.5,0.2s-0.2-0.3-0.2-0.4
							l0,0c0-0.1,0.3-1,1-1.9c0.9-1.2,2.2-1.7,3.6-1.3c0.6,0.1,1.3,0.3,2,0.4C23,1.8,27.7,2.9,28.4,4.9c0.4,1.1,0.6,3,0.8,5
							c0.3,2.2,0.5,4.7,1,5.4c0.4,0.6,0.7,1,0.6,1.4s-0.5,0.7-1.2,1.1c-0.2,0.1-0.4,0.3-0.6,0.4c-1.6,1.1-1.8,1.6-2.3,2.7V21
							c-0.5,1.3-4.9,5-6.3,5.1C20.3,26.3,20.3,26.3,20.3,26.3z"/>
					</g>
					<g>
						<path class="st0" d="M10.8,11c-0.2,0-0.3,0-0.5-0.1C9.7,10.5,9.5,10,9.5,9.7c0-1,1.2-1.9,1.2-1.9c0.1-0.1,0.2-0.1,0.4-0.1l0,0
							c0.7-0.1,1.6,0.5,1.9,1c0.3,0.4,0.3,0.7,0.3,1s-0.2,0.5-0.5,0.7C12.6,10.3,11.6,11,10.8,11z M11.2,8.4
							C11.1,8.4,11.1,8.4,11.2,8.4c-0.3,0.2-0.9,0.8-0.9,1.2c0,0.1,0,0.3,0.5,0.6c0.2,0.1,0.9-0.2,1.6-0.6c0.1,0,0.1-0.1,0.1-0.2
							c0,0,0-0.1-0.2-0.4C12.1,8.8,11.5,8.4,11.2,8.4z"/>
					</g>
					<g>
						<path class="st0" d="M11.3,12.5c-0.2,0-0.5,0-0.7-0.1c-1.2-0.4-2.3-1.5-2.8-3C7.6,9,7.7,8.6,7.9,8.4c0.6-0.8,2.5-0.9,3.3-0.8
							V8v0.4c-1.1,0-2.4,0.1-2.6,0.5c0,0-0.1,0.1,0,0.3c0.5,1.2,1.4,2.2,2.3,2.5c0.5,0.2,1,0.1,1.4-0.2c0.3-0.2,0.7-0.6,0.9-1.1
							c0.1-0.1-0.2-0.7-0.8-1.2c-0.2-0.1-0.2-0.4,0-0.5c0.1-0.2,0.4-0.2,0.5,0c0.3,0.2,1.6,1.4,0.9,2.2c-0.3,0.5-0.7,1-1.1,1.3
							C12.2,12.3,11.8,12.5,11.3,12.5z"/>
					</g>
					<g>
						<path class="st0" d="M8.3,13.5c-0.1,0-0.2,0-0.4,0c-0.7-0.1-1.3-0.5-1.7-1.3c-1.4-2.4-1-3.9-0.6-5.1l0.1-0.3
							C6,5.7,7.8,5.5,9.5,5.4h0.1c0.3,0,0.8-0.1,0.9-0.1C10.9,5,12.2,5.1,13.4,6c0.1,0.1,0.1,0.1,0.2,0.2c0.5,0.5,0.9,1.1,1.2,1.8
							c0.1,0.3,0.2,0.7,0.3,1c0.1,0.5,0.1,1,0.1,1.4c-0.3,1.6-1.9,1.8-2.7,1.8c-0.2,0-0.4-0.2-0.4-0.4s0.2-0.4,0.4-0.4
							c0.1,0,1.7,0.1,1.9-1.2c0.1-0.3,0-0.7-0.1-1.1c-0.1-0.3-0.2-0.6-0.3-0.9c-0.2-0.6-0.6-1.1-1-1.5c-0.1,0-0.1-0.1-0.2-0.1
							c-0.8-0.8-1.8-0.7-2-0.7C10.6,6,10.3,6,9.7,6.1H9.6C8.7,6.2,6.6,6.3,6.4,7L6.3,7.3C6,8.5,5.6,9.7,6.8,11.8
							c0.3,0.5,0.7,0.8,1.2,0.9c0.9,0.2,2-0.6,2.4-0.9c0.2-0.1,0.4-0.1,0.5,0c0.1,0.2,0.1,0.4,0,0.5C10.8,12.5,9.6,13.5,8.3,13.5z"
							/>
					</g>
					<g>
						<path class="st0" d="M18,20.2c-0.2,0-0.3-0.1-0.4-0.3c-0.3-1.6,0-3.6,1-5.8c0.3-0.8,0.6-1.4,0.8-1.8c0.1-0.2,0.2-0.4,0.2-0.5
							c0,0,0,0-0.1-0.1c-0.1-0.2-0.4-0.7,0.3-1.2c0,0,0.1,0,0.1-0.1c0.7-0.2,1.3-0.6,1.5-1c0.5-0.8,0.1-2-0.2-3
							c-0.1-0.4-0.2-0.7-0.3-1c-0.3-1.3-5-3.6-7.2-3.2c-0.7,0.1-1.5,0.6-2.3,1.4c-0.4,0.4-0.7,0.8-1,1.3S9.9,5.8,9.9,5.8
							C9.8,6.1,9.5,6.2,9.3,6.1C9.2,6,9.1,5.7,9.2,5.5c0,0,0.2-0.4,0.6-0.9c0.4-0.5,0.7-1,1.1-1.4c0.9-1,1.8-1.5,2.7-1.7
							c2.5-0.4,7.7,2.1,8.1,3.8c0.1,0.3,0.2,0.6,0.3,0.9c0.4,1.1,0.8,2.5,0.1,3.6c-0.4,0.6-1,1-1.9,1.3c-0.1,0.1-0.1,0.1-0.1,0.1
							s0,0,0.1,0.1s0.2,0.3,0.2,0.6c0,0.1-0.1,0.2-0.3,0.7c-0.2,0.4-0.5,1-0.8,1.8c-0.9,2.1-1.2,3.9-0.9,5.4
							C18.4,19.9,18.2,20.1,18,20.2L18,20.2z"/>
					</g>
					<g>
						<path class="st0" d="M15.2,11.5c-0.2,0-0.4-0.2-0.4-0.4s0.2-0.4,0.4-0.4c0,0,0.5,0,1-0.3c0.8-0.5,1.2-1.3,1-2.6
							c-0.1-0.7-0.4-1.2-0.9-1.5c-1.1-0.5-2.7,0.3-2.7,0.3c-0.2,0.1-0.4,0-0.5-0.2s0-0.4,0.2-0.5c0.1,0,2-1,3.4-0.3
							c0.7,0.4,1.1,1,1.3,2c0.3,2-0.6,3-1.4,3.4C15.9,11.5,15.2,11.5,15.2,11.5L15.2,11.5z"/>
					</g>
					<g>
						<path class="st0" d="M7.3,16.4c-0.5,0-1.2-0.2-1.8-0.6c-0.8-0.6-1.8-1.8-1.7-4.3c0-0.6,0-1.2,0-1.7c0-3.3,0-4.8,2.1-5.2
							C6.5,4.5,7,4.3,7.5,4.1c1-0.3,1.8-0.6,2.6,0.2c0.1,0.2,0.1,0.4,0,0.5c-0.2,0.1-0.4,0.1-0.5,0c-0.4-0.4-0.8-0.3-1.8,0
							C7.3,5,6.7,5.2,6,5.3C4.6,5.6,4.5,6.4,4.5,9.7c0,0.5,0,1.1,0,1.7c0,2.2,0.8,3.2,1.4,3.7c0.7,0.5,1.5,0.5,1.8,0.4
							c0.1,0,0.1-0.1,0.1-0.1C8.2,15,8.7,15,9.1,14.9c0.4,0,0.8-0.1,1.3-0.3c0.6-0.3,1-0.2,1.4-0.2c0.6,0.1,1.1,0.1,2.2-0.7
							c1-0.8,1-1.9,0.8-2.7c-0.1-0.4-0.3-0.7-0.3-0.7c-0.1-0.2,0-0.4,0.1-0.5c0.2-0.1,0.4,0,0.5,0.1c0,0,0.2,0.4,0.4,0.9
							c0.4,1.4,0,2.7-1,3.5c-1.3,1-2.1,0.9-2.8,0.8c-0.4,0-0.7-0.1-1,0.1c-0.6,0.3-1.1,0.3-1.5,0.4c-0.4,0-0.6,0.1-0.9,0.3
							c-0.1,0.1-0.2,0.2-0.4,0.2C7.8,16.4,7.6,16.4,7.3,16.4z"/>
					</g>
					<g>
						<path class="st0" d="M23.4,20.8h-0.1c-0.1,0-0.3-0.2-0.3-0.3l0,0c0,0,0,0-0.1-0.1c-0.2-0.1-0.2-0.4-0.1-0.5
							c0.1-0.2,0.4-0.2,0.5-0.1l0,0c0.5-0.8,1.4-3.6-2-10l0,0c-0.1-0.1-0.1-0.2,0-0.3c0.1-0.2,0.3-0.3,0.5-0.2
							c0.1,0,0.1,0.1,0.2,0.2c3.9,7.4,2.4,10.3,1.8,11C23.7,20.7,23.6,20.8,23.4,20.8z"/>
					</g>
					<g>
						<path class="st0" d="M23.1,20.5c-0.1,0-0.2,0-0.2-0.1c-0.2-0.2-0.7-0.4-1.7-0.7c-1-0.3-1.4-0.1-1.9,0.2
							c-0.4,0.2-0.8,0.4-1.4,0.3c-7,0.6-10.2-3.7-10.3-3.9c-0.1-0.2-0.1-0.4,0.1-0.5s0.4-0.1,0.5,0.1c0,0,3,4.1,9.7,3.6
							c0.4,0,0.7-0.1,1-0.3c0.5-0.3,1.2-0.6,2.5-0.2c1,0.3,1.6,0.6,2,0.9c0.2,0.1,0.2,0.4,0.1,0.5C23.4,20.4,23.3,20.5,23.1,20.5z"
							/>
					</g>
					<g>
						<path class="st0" d="M11.9,23.7c-1.7,0-2.6-1.2-3.4-2.3c-0.7-0.9-1.3-1.8-2.3-2c-0.3-0.1-0.6-0.2-0.8-0.3
							c-2.7-1.2-4.3-4.9-5.1-6.9c-0.7-1.6,0.9-4.1,2.5-6.5c0.8-1.2,1.6-2.4,1.9-3.2c0.7-2.1,2.7-2.1,3.7-2.1c0.2,0,0.4,0,0.5,0
							c1.9-0.4,3.4,0.7,3.4,0.8c0.2,0.1,0.2,0.4,0.1,0.5C12.1,2,11.8,2,11.6,1.9c0,0-1.2-1-2.8-0.6c-0.2,0-0.4,0-0.7,0
							C7,1.3,5.8,1.4,5.3,2.8C5,3.7,4.2,4.9,3.3,6.2c-1.3,2-3,4.5-2.5,5.7c0.8,2,2.4,5.5,4.8,6.6c0.2,0.1,0.5,0.2,0.7,0.2
							C7.6,19,8.4,20,9.1,21c1,1.4,1.9,2.6,4.5,1.6l1.6-0.7c3.5-1.4,5.2-2.1,7.4-1.7c0.2,0,0.3,0.2,0.3,0.4c0,0.2-0.2,0.3-0.4,0.3
							c-2-0.4-3.5,0.2-7,1.6l-1.6,0.7C13.1,23.6,12.4,23.7,11.9,23.7z"/>
					</g>
					<g>
						<path class="st0" d="M13,26.2C12.9,26.2,12.9,26.2,13,26.2c-0.9,0-1.6,0-2.2-0.1c-2.2-0.3-2.8-1.1-3.4-2
							c-0.2-0.3-0.5-0.7-0.8-1C5,21.4,5,19,5,18.9c0-0.2,0.2-0.4,0.4-0.4c0.2,0,0.4,0.2,0.4,0.4c0,0,0,2.2,1.3,3.6
							c0.4,0.4,0.6,0.8,0.9,1.1c0.6,0.8,1,1.5,2.9,1.7c0.6,0.1,1.2,0.1,2,0.1H13c2.5,0,3.6-0.5,4.4-0.8c0.7-0.3,1.3-0.6,2.4-0.1
							c0.2,0.1,0.3,0.3,0.2,0.5c-0.1,0.2-0.3,0.3-0.5,0.2c-0.8-0.3-1.2-0.2-1.8,0.1C16.9,25.7,15.7,26.2,13,26.2z"/>
					</g>
				</g>
			</g>
		</g>
	</g>
	<g>
		<g>
			<path class="st0" d="M5.8,122.9c-0.2,0-0.4-0.1-0.4-0.3c0-0.5-4.6-47.7,6.4-98.7c0-0.2,0.2-0.3,0.5-0.3c0.2,0,0.3,0.2,0.3,0.5
				c-11,50.8-6.5,97.9-6.4,98.4C6.2,122.7,6,122.9,5.8,122.9L5.8,122.9z"/>
		</g>
	</g>
</g>
</svg>
