<?xml version="1.0" encoding="utf-8"?>
<!-- Generator: Adobe Illustrator 27.1.1, SVG Export Plug-In . SVG Version: 6.00 Build 0)  -->
<svg version="1.1" id="Layer_1" xmlns="http://www.w3.org/2000/svg" xmlns:xlink="http://www.w3.org/1999/xlink" x="0px" y="0px"
	 viewBox="0 0 82.4 132.7" style="enable-background:new 0 0 82.4 132.7;" xml:space="preserve">
<style type="text/css">
	.st0{fill:#9D7D2D;}
	.st1{fill:#F3DA42;}
</style>
<g>
	<path class="st0" d="M62.9,129.9c-0.2,0-0.5-0.1-0.6-0.3c-0.1-0.1-0.1-0.2-0.1-0.3s0-2.4-0.1-5.6c-0.1-0.6-0.1-1.3-0.1-1.9
		c-0.2-2.5-0.4-4.8-0.8-6.3c-1-3.3-3.5-8-5.8-12.1c-1.6-3-3.1-5.7-3.9-7.8l-2-4.9c-0.1-0.2,0-0.5,0.2-0.6s0.5-0.1,0.7,0
		c0.4,0.3,10.5,8.2,11.7,13.6c0.8,3.5,1.1,13.6,1.3,20c0.1,1.1,0.2,2.3,0.4,3.4c0.2,1.8,0.2,2.5-0.4,2.7
		C63,129.9,62.9,129.9,62.9,129.9z M51.2,92.3l1.2,2.9c0.8,2,2.3,4.7,3.9,7.7c2,3.7,4.3,7.9,5.5,11.1c-0.2-4.3-0.5-8.2-0.9-10.1
		C60,100.2,54.1,94.8,51.2,92.3z"/>
</g>
<g>
	<path class="st0" d="M57.2,75.1c-0.1,0-0.3-0.1-0.4-0.2c-0.1-0.1-1.8-2-2.7-3.9c-1.1-2.5-0.9-5.1,0.5-6.7s4.3-3.6,4.5-3.6
		c0.3-0.2,0.6-0.1,0.7,0.2c0.2,0.2,0.1,0.6-0.2,0.7c0,0-3,2-4.2,3.4c-1.1,1.3-1.2,3.5-0.3,5.6c0.8,1.8,2.5,3.6,2.5,3.6
		c0.2,0.2,0.2,0.6,0,0.8C57.5,75.1,57.3,75.1,57.2,75.1z"/>
</g>
<g>
	<path class="st0" d="M63.1,87.6c-0.2,0-0.3-0.1-0.4-0.2c-0.2-0.3-5.4-7.5-6.1-12.7c-0.5-4.6-0.2-12.1,2.8-14.3c2.5-1.9,4.1-3,4.1-3
		c0.2-0.1,0.4-0.1,0.6,0c0.2,0.1,0.3,0.3,0.3,0.5c0,0.3-0.7,7.7-2.8,11.5c-1.7,3.1-3.3,4.9-3.9,5.4c0.7,4.9,5.8,11.8,5.8,11.9
		c0.2,0.2,0.1,0.6-0.1,0.8C63.4,87.5,63.3,87.6,63.1,87.6z M63.2,58.9c-0.7,0.5-1.8,1.3-3.1,2.3c-2.1,1.5-2.8,7.1-2.5,12.1
		c0.7-0.9,1.9-2.3,3.1-4.5C62.2,66.1,62.9,61.2,63.2,58.9z"/>
</g>
<g>
	<path class="st0" d="M81.7,74.3c-0.2,0-0.5-0.1-0.6-0.4c-0.9-1.7-4.2-7.1-6.9-8.4c-4.7-2.1-10.7-2-10.7-2c-0.3,0-0.5-0.2-0.6-0.5
		c0-0.3,0.2-0.5,0.5-0.6c0.3,0,6.3-0.1,11.2,2.1c2.2,1,4.4,4,6.1,6.6c-0.9-3.6-2.4-9.2-3.5-11.2c-1.6-3-5.8-5.2-7.5-5.3
		s-4.3,2.4-5.1,3.3c-0.2,0.2-0.5,0.2-0.8,0c-0.2-0.2-0.2-0.5,0-0.8c0.3-0.4,3.5-3.8,6-3.7c2.2,0.1,6.7,2.6,8.4,5.9
		c1.4,2.6,3.4,10.7,4.2,14c0.1,0.3-0.1,0.7-0.4,0.8C81.9,74.3,81.8,74.3,81.7,74.3z"/>
</g>
<g>
	<path class="st0" d="M75.1,63.6c-0.2,0-0.4-0.1-0.5-0.3c-4-6.9-10.5-4.9-10.6-4.9c-0.3,0.1-0.6-0.1-0.7-0.4
		c-0.1-0.3,0.1-0.6,0.4-0.7c0.1,0,7.4-2.2,11.8,5.4c0.2,0.3,0.1,0.6-0.2,0.7C75.2,63.6,75.2,63.6,75.1,63.6z"/>
</g>
<g>
	<path class="st0" d="M39.3,34.7c-2.6,0-5.2-0.9-5.4-1s-0.3-0.3-0.4-0.5l-0.1-2.6c0-0.1,0-0.3,0.1-0.4c0,0,0.9-1.1,2.8-2.3
		c1.4-0.9,5-1.6,7-0.3c0.8,0.5,1.6,1.6,1.1,3.7c-0.3,1.2-0.9,2.1-2,2.6C41.5,34.5,40.4,34.7,39.3,34.7z M34.6,32.8
		c1.2,0.4,5.1,1.5,7.3,0.3c0.7-0.4,1.2-1,1.4-1.9c0.3-1.2,0.1-2.1-0.6-2.6c-1.5-1-4.7-0.4-5.8,0.3c-1.3,0.8-2.1,1.6-2.4,1.9
		L34.6,32.8z"/>
</g>
<g>
	<path class="st0" d="M34.4,43c-0.2,0-0.3,0-0.5-0.1c-1.2-0.3-1.9-1.7-2.1-4.3c0-0.1,0-0.1,0-0.2l1.7-5.4c0.1-0.2,0.3-0.4,0.5-0.4
		c0.1,0,3.6,0.2,4.1,2.8l0.2,0.8c0.3,1.7,0.5,2.8-0.3,4.1C37.7,41,36,43,34.4,43z M33,38.7c0.1,1.9,0.6,3,1.2,3.2
		c0.9,0.2,2.4-1.2,2.9-2c0.6-0.9,0.5-1.7,0.1-3.3L37,35.8c-0.2-1.3-1.9-1.8-2.6-1.9L33,38.7z"/>
</g>
<g>
	<path class="st0" d="M37.3,53.8c-1.1,0-2.5-1.5-4.8-5c-3-4.7-2.1-8.9-2-9.1c0-0.1,0.1-0.2,0.2-0.3l1.4-1.2c0.2-0.1,0.4-0.2,0.5-0.1
		c0.2,0.1,0.3,0.2,0.4,0.4c0.5,3.3,1.3,3.5,1.3,3.5c0.2,0,0.3,0,0.4,0.1c0.1,0.1,3.1,2.3,4.5,4c1.5,1.8,0.3,4.7-0.4,6.4l-0.1,0.2
		c-0.3,0.8-0.8,1-1.2,1C37.4,53.8,37.4,53.8,37.3,53.8z M31.5,40.1c-0.1,0.8-0.5,4.3,1.9,8.1c2.7,4.2,3.7,4.5,3.9,4.5
		c0.1,0,0.2-0.2,0.3-0.4l0.1-0.2c0.6-1.5,1.7-4,0.6-5.4c-1.1-1.4-3.5-3.2-4.1-3.7c-0.2,0-0.4-0.1-0.6-0.2c-0.7-0.4-1.2-1.5-1.5-3.2
		L31.5,40.1z"/>
</g>
<g>
	<path class="st0" d="M32.4,63.1c-0.9,0-1.9-0.5-3-1.6c-4.1-3.8-2.8-12.5-1.6-16.2c1.4-4,2-5.2,2-5.3s0.1-0.2,0.2-0.2l0.8-0.5
		c0.2-0.1,0.4-0.1,0.6,0s0.3,0.4,0.2,0.6c0,0.1-1.9,5.9,0.8,12.1c1.4,3.1,2.2,4.6,2.8,5.4c0.6,0.9,0.8,1.3,0.4,2.2L35.5,60
		c-0.4,1-1.1,2.7-2.6,3.1C32.7,63.1,32.5,63.1,32.4,63.1z M29.9,42.5c-0.3,0.8-0.7,1.8-1.2,3.2c-1.4,4.2-2,11.9,1.3,15
		c0.7,0.7,1.7,1.4,2.6,1.2c1-0.2,1.5-1.7,1.8-2.4l0.1-0.2c0.2-0.4,0.2-0.4-0.4-1.3c-0.5-0.8-1.5-2.4-2.9-5.6
		C29.6,48.6,29.6,44.9,29.9,42.5z"/>
</g>
<g>
	<path class="st0" d="M18.1,63.4c-0.3,0-0.6,0-0.9-0.1c-0.8-0.3-1.8-1-2-3.1c-0.4-4.5,3.8-13,8.3-16.9c4.7-4,6.7-3.5,6.9-3.4
		c0.2,0.1,0.3,0.2,0.4,0.5c0,0.2-0.1,0.4-0.3,0.5c0,0-4.1,2.5-5.8,8.7c-0.8,2.9-1.1,5.2-1.3,7c-0.2,2.2-0.4,3.8-1.5,4.9
		C21,62.5,19.5,63.4,18.1,63.4z M28.2,41.3c-0.9,0.4-2.3,1.2-4,2.7c-4.6,4-8.3,12.3-8,16c0.1,1.2,0.5,1.9,1.3,2.2
		c1.1,0.4,2.8-0.5,3.7-1.4c0.8-0.9,1-2.2,1.2-4.3c0.2-1.9,0.5-4.2,1.3-7.2C24.7,45.3,26.7,42.7,28.2,41.3z"/>
</g>
<g>
	<path class="st0" d="M13.5,61.1c-0.2,0-0.4-0.1-0.6-0.2c-0.6-0.4-1-1.6-0.8-3.1c0.2-2.1,1.9-5.8,4.7-9.5c2.6-3.6,9.1-8.9,9.4-9.2
		c0.2-0.1,0.4-0.2,0.6-0.1l2,1c0.2,0.1,0.3,0.3,0.3,0.5S29,40.9,28.8,41c-11.9,7.3-12.6,19-12.6,19.1c0,0.3-0.2,0.5-0.5,0.5
		c-0.5,0-1.4,0.2-1.8,0.3C13.8,61,13.6,61.1,13.5,61.1z M26.5,40.2c-1.3,1.1-6.7,5.7-8.9,8.7c-2.6,3.5-4.3,7-4.5,8.9
		c-0.1,1.4,0.2,2,0.4,2.1c0.4-0.2,1.1-0.3,1.6-0.4c0.3-2.3,2-12.2,12.2-19L26.5,40.2z"/>
</g>
<g>
	<path class="st0" d="M8.3,54.9c-0.2,0-0.5-0.1-0.6-0.3c-1-1-0.8-3-0.7-3.2c0-0.1,0.1-0.2,0.2-0.3c0,0,0.9-0.9,1.7-2
		C9,49,9.1,48.7,9.3,48.5c1.3-2.1,4.7-7.6,9.3-9.8c4.7-2.3,6-2.4,6.3-2.4c0.2,0,0.4,0.2,0.4,0.4l0.3,1.3c0,0.2,0,0.4-0.2,0.6
		c-0.1,0-5.1,3.5-8.9,7.8c-1.3,1.5-2.6,3-3.6,4.4C10.5,53.5,9.4,54.8,8.3,54.9C8.4,54.9,8.4,54.9,8.3,54.9z M8,51.7
		c-0.1,0.7,0,1.7,0.4,2.1c0.4-0.1,2.1-2.2,3.4-3.9c1.1-1.4,2.3-2.9,3.7-4.5c3.4-3.8,7.7-6.9,8.8-7.7l-0.1-0.4
		c-0.6,0.2-2.1,0.6-5.3,2.2c-4.4,2.1-7.6,7.4-8.8,9.4c-0.2,0.3-0.3,0.5-0.4,0.7C9,50.6,8.3,51.4,8,51.7z"/>
</g>
<g>
	<path class="st0" d="M6.7,52.4c-0.3,0-0.6-0.1-0.8-0.3c-0.3-0.3-0.5-0.8-0.5-1.6c-0.1-1.9,0.7-6.3,4-9.9c4-4.2,14.7-6.2,15.1-6.3
		c0.2,0,0.3,0,0.4,0.1s0.2,0.2,0.2,0.4l0.1,2c0,0.3-0.2,0.5-0.4,0.6c-0.1,0-7.7,1.4-11.8,7.8c-3.9,5.9-5.1,7.1-6.1,7.3
		C6.8,52.4,6.7,52.4,6.7,52.4z M24,35.4c-2.3,0.5-10.7,2.4-13.9,5.8c-3.7,3.9-4,9.3-3.5,10c0.1,0.1,0.1,0.1,0.1,0
		c1-0.1,4.3-5.1,5.3-6.8c3.8-5.9,10.2-7.7,12-8.2V35.4z"/>
</g>
<g>
	<path class="st0" d="M2.1,45.7c-0.4,0-0.7-0.1-1-0.2c-0.3-0.2-0.8-0.6-0.7-1.6c0.3-2.6,1.7-4.2,7.2-7.8c5.6-3.7,16.2-4,16.6-4l0,0
		c0.3,0,0.5,0.2,0.5,0.5l0.4,2.7c0,0.1,0,0.3-0.1,0.4c-0.1,0.1-0.2,0.2-0.4,0.2c-8.8,0.9-15.1,5.8-17.5,7.7
		c-0.3,0.2-0.5,0.4-0.6,0.5C5.6,44.6,3.6,45.7,2.1,45.7z M23.7,33.2c-2.1,0.1-10.8,0.7-15.6,3.8c-5.5,3.7-6.5,4.9-6.7,7
		c0,0.4,0.1,0.5,0.2,0.6c0.6,0.4,2.8-0.4,4.2-1.4C6,43,6.2,42.8,6.5,42.6c2.4-1.9,8.7-6.8,17.5-7.8L23.7,33.2z"/>
</g>
<g>
	<path class="st0" d="M10,34.4c-1.1,0-2.1-0.1-2.8-0.2C-0.1,32.9,0,31.9,0,31.5c0.1-0.7,0.5-1.3,1.3-1.8c1-0.6,2.7-0.9,3.4-0.5
		c0.6,0.3,6.5,1.2,10.3,1.2c3.6,0,9.2,0.7,9.4,0.8c0.3,0,0.5,0.3,0.5,0.6l-0.1,0.9c0,0.2-0.2,0.4-0.5,0.5
		C23.8,33.2,15.3,34.4,10,34.4z M1.1,31.4c0.4,0.3,2.3,1,6.3,1.7c3.5,0.6,14.1-0.7,16.3-1l0,0c-1.5-0.2-5.9-0.7-8.7-0.7
		c-3.4,0.1-9.8-0.8-10.8-1.3c-0.3-0.1-1.5,0-2.4,0.5C1.4,30.9,1.2,31.2,1.1,31.4z M24.2,32.6L24.2,32.6L24.2,32.6z"/>
</g>
<g>
	<path class="st0" d="M24.3,32.2L24.3,32.2c-0.1,0-11.6-0.6-16-1.2c-3.2-0.4-5.6-1.6-6.5-3.1c-0.3-0.6-0.4-1.3-0.1-1.8
		c1.1-2.2,6.9-2.2,9.4-2.1c3.9,0.2,13.9,4.2,14.3,4.4c0.3,0.1,0.4,0.4,0.3,0.7l-1,2.8C24.7,32.1,24.5,32.2,24.3,32.2z M9.5,25.1
		c-3.6,0-6.3,0.6-6.8,1.5c-0.1,0.3-0.1,0.5,0.1,0.8c0.5,1,2.5,2.2,5.7,2.6c3.9,0.5,13.4,1,15.5,1.1l0.7-1.9
		c-2.1-0.8-10.2-4-13.5-4.1C10.6,25.1,10,25.1,9.5,25.1z"/>
</g>
<g>
	<path class="st0" d="M25.3,29.5c-0.1,0-0.2,0-0.2-0.1c-0.5-0.2-12.1-5.9-15.2-9.1c-2.2-2.3-2.4-4.5-1.8-5.7
		c0.4-0.9,1.3-1.4,2.4-1.3c2.3,0.2,3.9,0.7,5.6,2.7c1.7,2.1,4.5,5.2,6.8,7c2.5,2,4.1,3.3,4.1,3.3c0.2,0.2,0.3,0.5,0.1,0.7l-1.3,2.2
		C25.7,29.4,25.5,29.5,25.3,29.5z M10.2,14.3c-0.5,0-0.9,0.3-1.2,0.7c-0.4,0.9-0.1,2.7,1.6,4.4c2.6,2.7,12.2,7.6,14.4,8.7l0.8-1.3
		c-0.6-0.5-1.9-1.6-3.7-3c-2.4-1.9-5.2-5.1-7-7.2C13.7,14.9,12.4,14.5,10.2,14.3C10.3,14.3,10.3,14.3,10.2,14.3z"/>
</g>
<g>
	<path class="st0" d="M26.6,27.3c-0.1,0-0.2,0-0.3-0.1c-0.5-0.3-11.5-8.2-12.1-13.5C13.8,10.1,15,8,16.3,7.6c1-0.3,2.1,0.2,2.8,1.5
		c0.8,1.4,1.4,2.6,2,3.9c0.7,1.5,1.5,3.1,2.7,5.1c2.2,3.7,4.6,7.5,4.7,7.5c0.1,0.1,0.1,0.3,0.1,0.4s-0.1,0.3-0.3,0.3l-1.5,0.8
		C26.8,27.3,26.7,27.3,26.6,27.3z M16.9,8.6c-0.1,0-0.2,0-0.2,0c-0.9,0.3-1.7,2.1-1.4,5c0.5,4.4,9.6,11.3,11.3,12.5l0.7-0.4
		c-0.7-1.1-2.6-4.1-4.4-7c-1.2-2.1-2-3.7-2.8-5.2c-0.6-1.3-1.2-2.5-2-3.8C17.8,9,17.4,8.6,16.9,8.6z"/>
</g>
<g>
	<path class="st0" d="M32,26.3h-0.1l-2.7-0.5c-0.2,0-0.3-0.1-0.4-0.3c-0.2-0.3-3.8-7.4-2-14.6c0.3-1.1,0.5-2.1,0.7-3
		C28.6,3.1,29,1.8,30.3,1c1.6-1.1,3.8-1.2,5.2-0.4c0.9,0.6,1.4,1.5,1.3,2.7c-0.1,1.3-0.6,2.5-1.2,3.9c-0.8,2-1.8,4.4-2.2,8.1
		c-0.7,6.3-0.8,10.5-0.8,10.5c0,0.2-0.1,0.3-0.2,0.4C32.2,26.3,32.1,26.3,32,26.3z M29.7,24.8l1.8,0.3c0.1-1.4,0.3-5.1,0.8-10
		c0.4-3.8,1.5-6.4,2.3-8.4c0.6-1.4,1-2.5,1.1-3.6c0.1-0.8-0.2-1.3-0.8-1.7c-1-0.6-2.8-0.4-4,0.4c-1,0.6-1.3,1.8-2.3,6.3
		c-0.2,0.9-0.5,1.9-0.7,3C26.4,17.2,29.1,23.5,29.7,24.8z"/>
</g>
<g>
	<path class="st0" d="M32,26.5c-0.2,0-0.4,0-0.5-0.2C31.1,26.1,31,25.7,31,25c0.1-3.3,0.9-10.8,1.4-13.5c0.6-2.8,2.8-4.6,4.5-6
		c0.6-0.5,1.2-1,1.7-1.4c1.3-1.3,2.5-1.9,3.6-1.8C43.1,2.4,43.9,3,44.5,4c1.1,1.9-0.2,3.1-2.2,4.9c-1,0.9-2.3,2.1-3.7,3.7
		c-3.9,4.5-5.8,13.4-5.8,13.5c0,0.2-0.2,0.3-0.3,0.4C32.3,26.5,32.2,26.5,32,26.5z M32.2,26L32.2,26L32.2,26z M41.9,3.4
		c-0.7,0-1.6,0.5-2.5,1.5c-0.5,0.5-1.1,1-1.8,1.5c-1.7,1.4-3.6,3-4.1,5.4s-1.2,8.6-1.4,12.2c0.8-2.9,2.6-8.6,5.6-12.1
		c1.4-1.6,2.7-2.8,3.8-3.8c2-1.8,2.6-2.4,2-3.5c-0.4-0.7-0.9-1.1-1.4-1.2C42,3.4,41.9,3.4,41.9,3.4z"/>
</g>
<g>
	<path class="st0" d="M33.4,27.9c-0.2,0-0.3-0.1-0.4-0.2l-1.5-1.6c-0.1-0.1-0.2-0.3-0.1-0.5c3.3-10.9,6-12.3,9-13.9
		c2-1,4-1.2,5.1-0.3c0.6,0.5,1,1.2,0.8,2C46,15.3,43,17.5,39.6,20c-3.2,2.3-5.8,7.6-5.9,7.7C33.9,27.8,33.7,27.9,33.4,27.9
		C33.5,27.9,33.5,27.9,33.4,27.9z M32.6,25.6l0.7,0.8c0.9-1.6,3.1-5.4,5.8-7.3c3-2.2,6.1-4.5,6.3-5.9c0.1-0.4-0.1-0.7-0.4-0.9
		c-0.6-0.4-2-0.6-4,0.4C38,14.2,35.7,15.4,32.6,25.6z"/>
</g>
<g>
	<path class="st0" d="M34,31.1L34,31.1c-0.3,0-0.5-0.2-0.5-0.4l-0.6-3.2c0-0.1,0-0.2,0-0.3c0.1-0.2,1.4-3.8,5.2-5.7
		c2.9-1.4,6.9-2.3,8.8-1.1c0.7,0.4,1.1,1.1,1.2,2c0.1,2.7-2.8,3.6-5.8,4.5c-1,0.3-2,0.6-3,1c-3.8,1.5-4.8,2.9-4.8,2.9
		C34.4,31,34.2,31.1,34,31.1z M34,27.4l0.4,2c0.8-0.6,2.1-1.6,4.6-2.5c1-0.4,2-0.7,3-1c3.2-1,5.2-1.7,5.1-3.4c0-0.5-0.2-0.8-0.6-1.1
		c-1.4-0.8-4.9-0.3-7.8,1.1C35.6,24,34.3,26.8,34,27.4z"/>
</g>
<g>
	<path class="st1" d="M33.2,36.1c0,0,1.1,1.7,2.3,2.2"/>
	<path class="st0" d="M35.5,38.9c-0.1,0-0.1,0-0.2,0c-1.4-0.5-2.6-2.4-2.6-2.4c-0.2-0.3-0.1-0.6,0.2-0.7c0.2-0.2,0.6-0.1,0.7,0.2
		c0.3,0.4,1.2,1.7,2.1,2c0.3,0.1,0.4,0.4,0.3,0.7C36,38.8,35.8,38.9,35.5,38.9z"/>
</g>
<g>
	<path class="st1" d="M31.6,39.6c0.6,2.9,1.7,5.5,3.5,7.9"/>
	<path class="st0" d="M35,48c-0.2,0-0.3-0.1-0.4-0.2c-1.8-2.5-3-5.2-3.5-8.1c-0.1-0.3,0.1-0.6,0.4-0.6c0.3-0.1,0.6,0.1,0.6,0.4
		c0.5,2.8,1.6,5.3,3.4,7.7c0.2,0.2,0.1,0.6-0.1,0.8C35.2,48,35.1,48,35,48z"/>
</g>
<g>
	<path class="st0" d="M33.5,62.6c-0.1,0-0.3,0-0.4-0.1c-2.3-2-3.6-4.9-3.6-7.9c0-0.3,0.2-0.5,0.5-0.5l0,0c0.3,0,0.5,0.2,0.5,0.5
		c0,2.7,1.2,5.4,3.2,7.1c0.2,0.2,0.2,0.5,0.1,0.8C33.8,62.5,33.7,62.6,33.5,62.6z"/>
</g>
<g>
	<path class="st1" d="M19.2,62.6c-0.2-0.6-0.1-1.2-0.1-1.8c0.3-3.4,1.1-6.7,2.4-9.8"/>
	<path class="st0" d="M19.2,63.2c-0.2,0-0.4-0.1-0.5-0.4c-0.2-0.7-0.2-1.4-0.1-2c0.3-3.4,1.1-6.8,2.4-9.9c0.1-0.3,0.4-0.4,0.7-0.3
		c0.3,0.1,0.4,0.4,0.3,0.7c-1.3,3.1-2.1,6.3-2.3,9.6c0,0.5-0.1,1.1,0.1,1.6c0.1,0.3-0.1,0.6-0.4,0.7C19.3,63.1,19.3,63.2,19.2,63.2z
		"/>
</g>
<g>
	<path class="st1" d="M6.6,51.7c0.1-1.3,0.4-2.7,1-3.9s1.2-2.3,2.4-3.6"/>
	<path class="st0" d="M6.6,52.3C6.6,52.3,6.5,52.3,6.6,52.3C6.2,52.2,6,52,6,51.7c0.1-1.6,0.5-2.9,1.1-4.1c0.6-1.2,1.2-2.3,2.5-3.7
		c0.2-0.2,0.5-0.2,0.8,0c0.2,0.2,0.2,0.5,0,0.8C9.2,46,8.7,47,8.1,48.2c-0.5,1-0.9,2.3-1,3.7C7.1,52,6.8,52.3,6.6,52.3z"/>
</g>
<g>
	<path class="st0" d="M1,44.8c-0.1,0-0.2,0-0.3-0.1c-0.3-0.1-0.4-0.5-0.2-0.7c0.5-1,1.4-2.1,2.4-2.9c1.5-1.3,3.2-2.5,5.2-2.6
		c0.3,0,0.6,0.2,0.6,0.5s-0.2,0.6-0.5,0.6c-1.7,0.1-3.3,1.3-4.5,2.3c-0.8,0.7-1.7,1.7-2.1,2.5C1.3,44.7,1.2,44.8,1,44.8z"/>
</g>
<g>
	<path class="st1" d="M2.3,26.5c1.8,0.7,3.7,1,5.6,1.3c1.3,0.3,4,0.4,4,0.4"/>
	<path class="st0" d="M12,28.8L12,28.8c-0.1,0-2.8-0.1-4.2-0.4l-1.1-0.2c-1.5-0.3-3.1-0.6-4.5-1.1c-0.3-0.1-0.4-0.4-0.3-0.7
		C2,26.1,2.3,26,2.6,26.1C4,26.6,5.5,26.9,7,27.2l1,0.1c1.3,0.3,3.9,0.4,4,0.4c0.3,0,0.5,0.3,0.5,0.6S12.3,28.8,12,28.8z"/>
</g>
<g>
	<path class="st1" d="M8.6,15.3c0.9,1.2,2.2,2.1,3.5,3c1.9,1.3,3.7,2.7,5.4,4.2"/>
	<path class="st0" d="M17.4,23c-0.1,0-0.3,0-0.4-0.1c-1.7-1.5-3.5-2.9-5.3-4.2l-0.3-0.2c-1.2-0.8-2.4-1.7-3.3-2.9
		C8,15.4,8,15,8.3,14.9C8.5,14.7,8.8,14.7,9,15c0.8,1.1,1.9,1.9,3,2.7l0.3,0.2c1.9,1.3,3.7,2.7,5.4,4.2c0.2,0.2,0.3,0.5,0.1,0.8
		C17.7,23,17.6,23,17.4,23z"/>
</g>
<g>
	<path class="st0" d="M19.3,16.7c-0.2,0-0.3-0.1-0.4-0.2c-0.8-0.9-1.5-1.9-2.2-2.9c-0.4-0.6-0.9-1.3-1.1-2.1c-0.3-1.2,0-2.5,0.2-3.5
		c0.1-0.3,0.4-0.5,0.6-0.4c0.3,0.1,0.5,0.4,0.4,0.6c-0.2,0.9-0.5,2-0.2,3c0.2,0.6,0.5,1.2,0.9,1.7c0.7,1,1.4,1.9,2.2,2.9
		c0.2,0.2,0.2,0.6-0.1,0.8C19.6,16.6,19.5,16.7,19.3,16.7z"/>
</g>
<g>
	<path class="st0" d="M30.9,25.9c-0.2,0-0.4-0.1-0.5-0.3c-1.8-4.4-1.9-9.4-0.3-13.8c0.1-0.3,0.4-0.4,0.7-0.3
		c0.3,0.1,0.4,0.4,0.3,0.7c-1.5,4.2-1.4,8.9,0.3,13.1c0.1,0.3,0,0.6-0.3,0.7C31,25.9,30.9,25.9,30.9,25.9z"/>
</g>
<g>
	<path class="st1" d="M43.9,4.3C43.3,4.5,42.4,5,42,5.4c-1.1,1-2.4,2.1-3.3,3.2"/>
	<path class="st0" d="M38.8,9.2c-0.1,0-0.2,0-0.3-0.1c-0.2-0.2-0.3-0.5-0.1-0.8c0.8-1.1,1.9-2.1,2.9-2.9L41.7,5
		c0.5-0.4,1.4-1,2.1-1.2c0.3-0.1,0.6,0.1,0.7,0.4c0.1,0.3-0.1,0.6-0.4,0.7c-0.5,0.1-1.3,0.6-1.6,0.9l-0.4,0.4c-1,0.8-2,1.8-2.7,2.7
		C39.1,9.1,38.9,9.2,38.8,9.2z"/>
</g>
<g>
	<ellipse transform="matrix(0.2736 -0.9618 0.9618 0.2736 -10.2076 51.8573)" class="st1" cx="29.2" cy="32.7" rx="8.5" ry="5.3"/>
	<path class="st0" d="M27.8,41.6c-0.4,0-0.7,0-1.1-0.2c-1.5-0.4-2.7-1.8-3.3-3.8c-0.5-1.9-0.5-4.2,0.2-6.5c1.4-4.8,5-8,8.1-7.1
		s4.5,5.5,3.1,10.3c-0.7,2.3-1.8,4.3-3.3,5.6C30.4,41,29.1,41.6,27.8,41.6z M30.6,24.9c-2.3,0-4.9,2.7-6,6.5
		c-0.6,2.1-0.7,4.2-0.2,5.9C25,39,25.9,40,27,40.4l0,0c1.2,0.3,2.5-0.1,3.8-1.3s2.4-3,3-5.1c1.2-4.2,0.1-8.3-2.4-9
		C31.2,24.9,30.9,24.9,30.6,24.9z"/>
</g>
<g>
	<path class="st0" d="M56.2,63.4c-3.5-7.9-7.4-14-10.7-18.4c-2.8-3.6-5.4-6.4-7.5-8.5l-0.2,1.2c2.1,2,4.5,4.6,7,8
		c3.3,4.4,7.2,10.5,10.7,18.5L56.2,63.4z"/>
	<path class="st0" d="M64.5,91.2c-1.3-7.3-3.1-13.8-5.1-19.6l-0.7,0.9c1.9,5.5,3.6,11.8,4.8,18.8c2.2,12.1,0.5,29-1,40.7
		c-0.1,0.3,0.1,0.6,0.5,0.6c0.2,0,0.5-0.2,0.4-0.4C65,120.5,66.7,103.5,64.5,91.2z"/>
</g>
</svg>
