<?xml version="1.0" encoding="utf-8"?>
<!-- Generator: Adobe Illustrator 27.1.1, SVG Export Plug-In . SVG Version: 6.00 Build 0)  -->
<svg version="1.1" id="Layer_1" xmlns="http://www.w3.org/2000/svg" xmlns:xlink="http://www.w3.org/1999/xlink" x="0px" y="0px"
	 viewBox="0 0 209.1 17.1" style="enable-background:new 0 0 209.1 17.1;" xml:space="preserve">
<style type="text/css">
	.st0{fill:#FFFFFF;}
</style>
<g>
	<path class="st0" d="M12.8,0.3v16.6H9V10H3.8v6.8H0V0.3h3.8v6.5H9V0.3H12.8z"/>
	<path class="st0" d="M23.1,17.1c-2.2,0-4-0.8-5.2-2.5s-1.8-3.7-1.8-6.1c0-2.4,0.6-4.4,1.9-6.1s3-2.4,5.3-2.4c2.3,0,4.1,0.9,5.2,2.6
		c1.2,1.7,1.8,3.7,1.8,5.9c0,2.4-0.6,4.4-1.8,6.1C27.2,16.2,25.4,17.1,23.1,17.1z M23.2,3.2c-2,0-3,1.8-3,5.4c0,3.6,1,5.4,3,5.4
		c2,0,3-1.8,3-5.4C26.1,5,25.1,3.2,23.2,3.2z"/>
	<path class="st0" d="M45.4,0.3l-5,16.6h-4.2l-5-16.6h4.1l3.3,11.8l3.4-11.8H45.4z"/>
	<path class="st0" d="M59.5,3.4h-7.9v3.4h6.2v3.1h-6.2v3.6h7.9v3.3H47.7V0.3h11.8V3.4z"/>
	<path class="st0" d="M66.5,10.2v6.6h-3.9V0.3h7.3c1.3,0,2.4,0.2,3.2,0.5s1.5,0.9,2,1.7c0.5,0.8,0.8,1.8,0.8,2.8c0,2-1,3.4-2.9,4.3
		l3.1,7.3h-4.3l-2.5-6.6H66.5z M66.5,3.2v4.2h2.4c0.8,0,1.3-0.1,1.7-0.2c0.4-0.1,0.7-0.4,0.9-0.7c0.3-0.4,0.4-0.8,0.4-1.3
		c0-0.5-0.1-0.9-0.4-1.2c-0.3-0.4-0.6-0.6-0.9-0.7s-0.9-0.1-1.8-0.1H66.5z"/>
	<path class="st0" d="M98.3,3.5h-7.7v3.7h6.1v3.1h-6.1v6.5h-4V0.3h11.8V3.5z"/>
	<path class="st0" d="M107.1,17.1c-2.2,0-4-0.8-5.2-2.5s-1.8-3.7-1.8-6.1c0-2.4,0.6-4.4,1.9-6.1s3-2.4,5.3-2.4
		c2.3,0,4.1,0.9,5.2,2.6c1.2,1.7,1.8,3.7,1.8,5.9c0,2.4-0.6,4.4-1.8,6.1C111.2,16.2,109.4,17.1,107.1,17.1z M107.2,3.2
		c-2,0-3,1.8-3,5.4c0,3.6,1,5.4,3,5.4c2,0,3-1.8,3-5.4C110.1,5,109.2,3.2,107.2,3.2z"/>
	<path class="st0" d="M121.4,10.2v6.6h-3.9V0.3h7.3c1.3,0,2.4,0.2,3.2,0.5s1.5,0.9,2,1.7c0.5,0.8,0.8,1.8,0.8,2.8c0,2-1,3.4-2.9,4.3
		l3.1,7.3h-4.3l-2.5-6.6H121.4z M121.4,3.2v4.2h2.4c0.8,0,1.3-0.1,1.7-0.2c0.4-0.1,0.7-0.4,0.9-0.7c0.3-0.4,0.4-0.8,0.4-1.3
		c0-0.5-0.1-0.9-0.4-1.2c-0.3-0.4-0.6-0.6-0.9-0.7s-0.9-0.1-1.8-0.1H121.4z"/>
	<path class="st0" d="M148.8,16.8l-4.1-13.5v13.5h-3.2V0.3h6l2.9,9.9l3.1-9.9h6.1v16.6h-3.9V3.3l-4.2,13.5H148.8z"/>
	<path class="st0" d="M169.8,17.1c-2.2,0-4-0.8-5.2-2.5s-1.8-3.7-1.8-6.1c0-2.4,0.6-4.4,1.9-6.1s3-2.4,5.3-2.4
		c2.3,0,4.1,0.9,5.2,2.6c1.2,1.7,1.8,3.7,1.8,5.9c0,2.4-0.6,4.4-1.8,6.1C173.9,16.2,172.1,17.1,169.8,17.1z M169.9,3.2
		c-2,0-3,1.8-3,5.4c0,3.6,1,5.4,3,5.4c2,0,3-1.8,3-5.4C172.9,5,171.9,3.2,169.9,3.2z"/>
	<path class="st0" d="M184.1,10.2v6.6h-3.9V0.3h7.3c1.3,0,2.4,0.2,3.2,0.5s1.5,0.9,2,1.7c0.5,0.8,0.8,1.8,0.8,2.8c0,2-1,3.4-2.9,4.3
		l3.1,7.3h-4.3l-2.5-6.6H184.1z M184.1,3.2v4.2h2.4c0.8,0,1.3-0.1,1.7-0.2c0.4-0.1,0.7-0.4,0.9-0.7c0.3-0.4,0.4-0.8,0.4-1.3
		c0-0.5-0.1-0.9-0.4-1.2c-0.3-0.4-0.6-0.6-0.9-0.7s-0.9-0.1-1.8-0.1H184.1z"/>
	<path class="st0" d="M209.1,3.4h-7.9v3.4h6.2v3.1h-6.2v3.6h7.9v3.3h-11.8V0.3h11.8V3.4z"/>
</g>
</svg>
