<?xml version="1.0" encoding="utf-8"?>
<!-- Generator: Adobe Illustrator 27.1.1, SVG Export Plug-In . SVG Version: 6.00 Build 0)  -->
<svg version="1.1" id="Layer_1" xmlns="http://www.w3.org/2000/svg" xmlns:xlink="http://www.w3.org/1999/xlink" x="0px" y="0px"
	 viewBox="0 0 85.8 97.7" style="enable-background:new 0 0 85.8 97.7;" xml:space="preserve">
<style type="text/css">
	.st0{fill:#F3DA42;}
	.st1{fill:#9D7D2D;}
	.st2{fill:#FFFFFF;}
	.st3{fill:#C02B37;}
	.st4{fill:#A17D23;}
	.st5{fill:#F3DA42;stroke:#9D7D2D;stroke-width:0.5;stroke-linecap:round;stroke-linejoin:round;}
	.st6{fill:#FFFDF5;}
	.st7{fill:#191818;}
	.st8{clip-path:url(#SVGID_00000124866696180846934360000005389932604672228495_);}
	.st9{fill:#010101;}
	.st10{fill:#B9E5DD;}
	.st11{fill:#235B4E;}
	.st12{fill:#FFFDF4;}
	.st13{fill:#A24596;}
	.st14{clip-path:url(#SVGID_00000134224179564453383000000006295261088838855087_);}
	.st15{clip-path:url(#SVGID_00000183949020767648797540000017839937351811347329_);}
	.st16{fill:#F5D93F;}
	.st17{fill:#F5D93F;stroke:#A17D23;stroke-width:0.25;stroke-linecap:round;stroke-linejoin:round;stroke-miterlimit:10;}
	.st18{clip-path:url(#SVGID_00000158026950041844466030000012030175474240695741_);}
	.st19{clip-path:url(#SVGID_00000036965559365424674920000005242703008107328441_);}
	.st20{fill:#FFB4AB;}
	.st21{fill:#9F2241;}
	.st22{fill:#E9E8D6;}
	.st23{fill:#2D0F13;}
	.st24{fill:#F7B1AA;}
	.st25{fill:#5F4777;}
	.st26{fill:#5F4776;}
	.st27{fill:#AA97C8;}
	.st28{fill:#AE95DA;}
	.st29{clip-path:url(#SVGID_00000032632867614936496010000009195007893826434495_);}
	.st30{fill:#AE95DA;stroke:#5F4776;stroke-width:4;stroke-linecap:round;stroke-linejoin:round;}
	.st31{fill:#FFFCF3;}
	.st32{clip-path:url(#SVGID_00000051345705972253543920000013401478971760104598_);}
</style>
<g>
	<g>
		<g>
			<path class="st1" d="M11.3,21.4C11.3,21.4,11.3,21.4,11.3,21.4c-0.2,0-3.8-0.1-6-1.9c-0.4-0.3-0.4-0.9-0.1-1.3
				c0.3-0.4,0.9-0.4,1.3-0.1c1.7,1.4,4.9,1.5,4.9,1.5c0.5,0,0.9,0.4,0.9,0.9C12.2,21,11.8,21.4,11.3,21.4z"/>
		</g>
		<g>
			<g>
				<g>
					<path class="st1" d="M43.2,60.5C43.1,60.5,43.1,60.5,43.2,60.5c-0.6-0.1-0.9-0.5-0.9-1c0-0.4,1.2-10.4,8.4-22.6
						C57.3,26,66.5,16.9,78.3,10c0.4-0.3,1-0.1,1.2,0.3c0.3,0.4,0.1,1-0.3,1.2c-11.5,6.7-20.5,15.6-26.9,26.3
						c-7.1,11.8-8.2,21.8-8.2,21.9C44,60.2,43.6,60.5,43.2,60.5z"/>
				</g>
				<g>
					<path class="st1" d="M51.5,38.3c-0.3,0-0.6-0.2-0.8-0.5c-2.3-4-1.2-13.6-1.2-14c0.1-0.5,0.5-0.8,1-0.8c0.5,0.1,0.8,0.5,0.8,1
						c-0.3,2.6-0.7,10,1,13c0.2,0.4,0.1,1-0.3,1.2C51.8,38.2,51.7,38.3,51.5,38.3z"/>
				</g>
				<g>
					<path class="st1" d="M64.3,39.4c-2.9,0-9.5-0.2-12.3-2.3c-0.4-0.3-0.5-0.9-0.2-1.2c0.3-0.4,0.9-0.5,1.2-0.2
						c2.5,1.9,9.8,2.1,12.4,1.9c0.6,0,0.9,0.4,0.9,0.9c0,0.5-0.4,0.9-0.9,0.9C65.5,39.4,65,39.4,64.3,39.4z"/>
				</g>
				<g>
					<path class="st1" d="M73.5,32.3C73.5,32.3,73.5,32.3,73.5,32.3c-3.4-0.1-14.6-0.8-16.5-3c-0.3-0.4-0.3-0.9,0.1-1.3
						c0.4-0.3,0.9-0.3,1.3,0.1c1,1.1,8.6,2.1,15.2,2.4c0.5,0,0.9,0.4,0.9,0.9C74.4,31.9,74,32.3,73.5,32.3z"/>
				</g>
				<g>
					<path class="st1" d="M56.8,30.1c-0.4,0-0.7-0.2-0.8-0.6c-1.6-4.6-1-12.9-1-13.2c0-0.5,0.5-0.8,1-0.8c0.5,0,0.9,0.5,0.8,1
						c0,0.1-0.6,8.3,0.9,12.5c0.2,0.5-0.1,1-0.5,1.1C57,30.1,56.9,30.1,56.8,30.1z"/>
				</g>
				<g>
					<path class="st1" d="M63.6,22.8c-0.4,0-0.7-0.2-0.8-0.6c-1.9-5.9,0.7-12.3,0.8-12.6c0.2-0.5,0.7-0.7,1.2-0.5
						c0.5,0.2,0.7,0.7,0.5,1.2c0,0.1-2.5,6.1-0.8,11.4c0.1,0.5-0.1,1-0.6,1.1C63.8,22.7,63.7,22.8,63.6,22.8z"/>
				</g>
				<g>
					<path class="st1" d="M74.7,23.4c-3,0-7.6-0.3-9.8-2c-0.4-0.3-0.5-0.9-0.2-1.2c0.3-0.4,0.9-0.5,1.2-0.2
						c2.5,1.9,9.2,1.8,11.6,1.6c0.5-0.1,0.9,0.3,1,0.8c0,0.5-0.3,0.9-0.8,1C77.5,23.3,76.3,23.4,74.7,23.4z"/>
				</g>
				<g>
					<path class="st1" d="M75.3,17.3c-1.5,0-3.2-0.2-4.1-0.7c-0.4-0.2-0.6-0.8-0.3-1.2c0.2-0.4,0.8-0.6,1.2-0.3
						c1.2,0.7,4.8,0.5,6.9,0.2c0.5-0.1,0.9,0.3,1,0.8c0.1,0.5-0.3,0.9-0.8,1C78.8,17,77.1,17.3,75.3,17.3z"/>
				</g>
				<g>
					<path class="st1" d="M70.9,16.1c-0.4,0-0.7-0.2-0.8-0.6C69,12.6,70.9,7,71.1,6.3c0.2-0.5,0.7-0.7,1.1-0.5
						C72.7,6,73,6.5,72.8,6.9c-0.5,1.5-1.8,6-1.1,8c0.2,0.5-0.1,1-0.5,1.1C71.1,16.1,71,16.1,70.9,16.1z"/>
				</g>
				<g>
					<g>
						<path class="st1" d="M46.4,97.7c-0.5,0-0.9-0.4-0.9-0.9c-0.4-21-3.5-37.5-3.5-37.6l0,0c0,0-3.3-9.9-7.6-14.1
							c-0.8-0.7-20.6-17.4-22.8-23.6c0,0,0,0,0,0c0,0-1.9-4.1-5.3-5.5c-0.5-0.2-0.7-0.7-0.5-1.2C6,14.4,6.5,14.2,7,14.4
							c4.1,1.7,6.2,6.3,6.3,6.5C15,25.7,30,39.1,35.6,43.8c4.6,4.5,8,14.6,8.1,15c0.1,0.3,3.1,16.9,3.6,38
							C47.3,97.3,46.9,97.7,46.4,97.7C46.4,97.7,46.4,97.7,46.4,97.7z"/>
					</g>
					<g>
						<path class="st1" d="M27,45.5c-1.1,0-2.3-0.1-3.6-0.3c-0.5-0.1-0.8-0.5-0.8-1c0.1-0.5,0.5-0.8,1-0.8c6.8,1,8.6-1.1,8.6-1.1
							c0.3-0.4,0.9-0.4,1.2-0.1c0.4,0.3,0.5,0.8,0.2,1.2C33.4,43.7,31.9,45.5,27,45.5z"/>
					</g>
					<g>
						<path class="st1" d="M21.4,39.2c-1.8,0-4.1-0.4-6.9-1.6c-0.5-0.2-0.7-0.7-0.5-1.2c0.2-0.5,0.7-0.7,1.2-0.5
							c6.9,3,10.2,0.5,10.3,0.4c0.4-0.3,0.9-0.2,1.2,0.2c0.3,0.4,0.2,0.9-0.1,1.2C26.6,37.8,24.8,39.2,21.4,39.2z"/>
					</g>
					<g>
						<path class="st1" d="M15.7,31.8c-1.6,0-3.7-0.4-6.6-1.7c-0.4-0.2-0.7-0.7-0.4-1.2c0.2-0.4,0.7-0.7,1.2-0.4c6,2.7,8.1,1,8.1,1
							c0.4-0.3,0.9-0.3,1.2,0.1c0.3,0.4,0.3,0.9,0,1.2C19,30.9,18,31.8,15.7,31.8z"/>
					</g>
					<g>
						<path class="st1" d="M12.4,20.6c0,0-0.1,0-0.1,0c-0.5-0.1-0.8-0.5-0.7-1c0,0,0.5-3.3-0.4-5.2c-0.2-0.4,0-1,0.4-1.2
							c0.4-0.2,1,0,1.2,0.4c1.1,2.4,0.6,6,0.5,6.2C13.2,20.3,12.9,20.6,12.4,20.6z"/>
					</g>
					<g>
						<path class="st1" d="M18.8,29.1c-0.1,0-0.2,0-0.3,0C18,29,17.8,28.4,17.9,28c0,0,1.4-4.5-0.6-10.3c-0.2-0.5,0.1-1,0.5-1.1
							s1,0.1,1.1,0.5c2.3,6.4,0.7,11.2,0.7,11.4C19.5,28.9,19.1,29.1,18.8,29.1z"/>
					</g>
					<g>
						<path class="st1" d="M25.5,36.7c-0.4,0-0.7-0.2-0.8-0.6c-0.2-0.5,0.1-1,0.5-1.1c0.1-0.1,3.6-2-0.3-14c-0.2-0.5,0.1-1,0.6-1.1
							c0.5-0.2,1,0.1,1.1,0.6c4.5,13.9-0.2,16-0.7,16.2C25.7,36.6,25.6,36.7,25.5,36.7z"/>
					</g>
					<g>
						<path class="st1" d="M32.8,42.8c-0.1,0-0.3,0-0.4-0.1C32,42.5,31.8,42,32,41.5l0,0c0,0,2.3-4.8-0.8-14.2
							c-0.2-0.5,0.1-1,0.6-1.1c0.5-0.2,1,0.1,1.1,0.6c3.3,10.1,0.8,15.3,0.7,15.5C33.5,42.6,33.2,42.8,32.8,42.8z"/>
					</g>
					<g>
						<path class="st1" d="M30.8,53.7c-2,0-4-0.4-5.9-1.7c-0.2-0.1-0.4-0.4-0.4-0.6s0.1-0.5,0.2-0.7c0.1-0.1,0.2-0.2,0.3-0.3
							c-2.8-0.2-6.4-0.9-7.4-3.5c-0.1-0.3,0-0.7,0.2-1c-2.3-0.7-5.8-2.2-7.1-4.9c-0.1-0.2-0.1-0.5,0-0.7c0,0,0,0,0,0
							c-2-1.1-4.5-2.9-4.9-5.5c-0.1-0.4,0.1-0.7,0.5-0.9c0,0,0,0,0.1,0c-1.9-1.3-4.1-3.3-3.9-5c0-0.3,0.2-0.6,0.5-0.7
							c0.1,0,0.1-0.1,0.2-0.1c-1-1.2-2.1-2.7-2.3-4.2c-0.1-0.4,0.2-0.8,0.6-1c0,0,0.2-0.1,0.3-0.1c-1-1.3-1.9-3-1.8-4.3
							c0-0.4,0.3-0.6,0.6-0.7c0,0,0.3-0.1,0.6-0.1c-0.7-1.1-1.4-2.5-1.3-3.9c0-0.3,0.2-0.6,0.5-0.7c0.2-0.1,0.5-0.2,0.9-0.3
							C0.7,11.2-0.1,9,0.7,7.2c0.2-0.4,0.6-0.6,1-0.5c0.2,0,1.9,0.4,3.2,1.4C5,7.8,5,7.6,4.9,7.4C4.8,7.1,4.9,6.7,5.1,6.5
							c0.2-0.3,0.5-0.4,0.8-0.3c0.1,0,3,0.5,5,2.1c0.2-0.4,0.4-0.9,0.7-1.4c0.2-0.3,0.6-0.4,1-0.3c0.4,0.1,3,1.1,4.6,2.8
							c0.2-0.5,0.5-1,0.8-1.3c0.3-0.3,0.8-0.4,1.2-0.1c0.5,0.4,2.6,1.9,3.8,3.7c0.5-1,0.9-1,1.2-1c0.2,0,0.4,0,0.6,0.2
							c0.4,0.3,3.5,2.7,5.1,5.3c0.4-0.7,0.7-0.9,0.8-0.9c0.2-0.1,0.6-0.1,0.9,0c0.2,0.1,0.3,0.2,0.5,0.4c0.4,0.7,1.8,3.2,2.4,5.6
							c0.3-0.4,0.6-0.5,0.7-0.5c0.2-0.1,0.6,0,0.8,0.1c0.1,0.1,0.3,0.2,0.3,0.4c0.1,0.2,0.4,0.9,0.5,1.7c0.9-0.3,1.4-0.2,1.8,0.3
							c0.1,0.3,2,4.9,1.5,9.2c0.4-0.2,0.8-0.3,1.1-0.3c0.5-0.1,0.9,0.3,1,0.7c0.2,1.5,2.1,14.6-2.5,17.7c-0.2,0.1-0.4,0.2-0.6,0.1
							c0.1,0.4,0,0.9-0.4,1.1C38.6,51.7,34.9,53.7,30.8,53.7z M26.8,51.1c4.8,2.4,11.1-1,11.2-1c0.2-0.1,0.4-0.1,0.5-0.1
							c-0.1-0.4,0-0.8,0.3-1c2.8-1.9,2.4-10.6,1.9-14.9c-0.5,0.3-1,0.7-1.3,1c-0.3,0.3-0.8,0.3-1.1,0.1c-0.3-0.2-0.5-0.7-0.3-1.1
							c1.4-3.3,0-7.9-0.6-9.5c-0.3,0.1-0.7,0.3-1.1,0.5c-0.4,0.2-0.8,0.1-1.1-0.2c-0.3-0.3-0.3-0.8-0.1-1.1c0-0.1,0.1-0.2,0.1-0.3
							c-0.2,0.3-0.3,0.7-0.5,1c-0.2,0.4-0.7,0.6-1.2,0.4c-0.4-0.2-0.6-0.7-0.5-1.2c0.4-0.8-0.6-3.6-1.9-6c-0.1,0.4-0.3,0.8-0.4,1.2
							c-0.1,0.4-0.5,0.7-0.9,0.7c-0.4,0-0.8-0.4-0.8-0.8c-0.2-1.9-2.9-4.5-4.6-5.9c-0.2,0.4-0.4,1-0.5,1.6c-0.1,0.4-0.5,0.7-1,0.7
							c-0.5-0.1-0.8-0.5-0.8-0.9c0-1-1.8-2.9-3.3-4.1c-0.2,0.4-0.5,1-0.7,1.5c-0.1,0.3-0.5,0.6-0.8,0.6c-0.4,0-0.7-0.2-0.8-0.6
							c-0.5-1.3-2.6-2.4-3.9-3c-0.4,0.8-0.5,1.6-0.5,1.6c-0.1,0.4-0.3,0.7-0.7,0.7c-0.4,0.1-0.7-0.1-0.9-0.3c-0.9-1.3-2.8-2-3.9-2.3
							c-0.2,1-0.8,1.9-0.9,2c-0.2,0.2-0.4,0.4-0.8,0.4c-0.3,0-0.6-0.2-0.7-0.4C3.9,9.4,2.9,8.9,2.2,8.6c-0.2,1.7,1.1,3.9,1.7,4.7
							c0.2,0.3,0.2,0.8,0,1.1c-0.3,0.3-0.7,0.4-1.1,0.2c-0.3-0.2-0.6-0.2-0.9-0.2c0.2,1.6,1.8,3.4,2.5,4.1c0.3,0.3,0.4,0.9,0,1.2
							c-0.3,0.4-0.9,0.4-1.2,0.1c-0.4-0.3-0.8-0.4-1.2-0.4c0.4,1.2,1.7,2.9,2.8,4c0,0,0,0,0,0c0.3,0.4,0.3,0.9,0,1.3
							c-0.4,0.3-0.9,0.3-1.3,0c0,0,0,0,0,0l0,0c-0.1-0.1-0.3-0.2-0.5-0.2c0.6,1.6,2.3,3.2,3,3.7c0.1,0.1,0.3,0.2,0.4,0.3
							c0.3,0.3,0.4,0.7,0.2,1.1c-0.2,0.4-0.6,0.6-1,0.5c-0.1,0-0.3-0.1-0.5-0.3c-0.2-0.1-0.4-0.1-0.6-0.1c0.6,1,2.7,2.7,5,4
							c0.4,0.2,0.6,0.8,0.3,1.2c-0.2,0.4-0.7,0.6-1.2,0.4c-0.2-0.1-0.5-0.1-0.7,0c0.9,2.3,4.6,4,6.1,4.5c0,0,0.1,0,0.1,0
							c0.5,0.2,0.7,0.7,0.6,1.1c-0.2,0.5-0.7,0.7-1.1,0.6c0,0,0,0-0.1,0c-0.1,0-0.1,0-0.2-0.1c2.3,2.4,7.1,3.3,7.2,3.3
							c0.4,0.1,0.7,0.4,0.7,0.7c0.1,0.4-0.1,0.7-0.4,0.9l-0.9,0.5c1.3,1.4,4.7,1.9,7.6,1.8c0.5,0,1,0.3,1,0.8c0,0.4-0.2,0.8-0.6,0.9
							C27.5,50.4,27.1,50.7,26.8,51.1z"/>
					</g>
				</g>
				<g>
					<path class="st1" d="M59.2,46.9c-3.3,0-8.4-0.4-11.1-1.5c-0.5-0.2-0.7-0.7-0.5-1.2c0.1-0.2,0.2-0.4,0.4-0.5
						c-0.3,0-0.6-0.2-0.7-0.5C47,42.7,39.9,30,44,21.4c0.1-0.2,0.3-0.4,0.6-0.5c0.3-0.1,0.5,0,0.7,0.1c0,0,0.1,0.1,0.2,0.2
						c0.2-1.7,0.7-4,2-6.3c0.1-0.2,0.3-0.4,0.6-0.4c0.2-0.1,0.5,0,0.7,0.1c0.1,0,0.3,0.2,0.5,0.5c0.7-1.9,2.1-4.6,4.7-6.4
						c0.2-0.1,0.5-0.2,0.7-0.1c0.3,0.1,0.5,0.2,0.6,0.5c0,0,0.1,0.2,0.1,0.3c1-1.7,2.5-3.7,4.1-4.2c0.2-0.1,0.5,0,0.6,0.1
						c0.5-1.6,1.3-3.4,2.6-3.9c0.2-0.1,0.4-0.1,0.6,0c0.4,0.1,1,0.4,1.4,0.9c1-0.9,2.7-2,5.5-2.2c0.4,0,0.8,0.2,0.9,0.6
						c0,0.1,0.1,0.4,0.2,0.9c0.8-0.6,1.8-1.1,2.8-1.3c0.4-0.1,0.8,0.2,1,0.6c0,0.1,0.2,0.5,0.2,1.1c1.2-0.4,3-0.7,5.3-0.4
						c0.3,0,0.6,0.3,0.7,0.5c0.1,0.1,0.4,1,0.3,2c1.1,0.2,2.9,0.7,3.8,1.6c0.2,0.2,0.3,0.5,0.2,0.8c-0.2,0.9-0.8,3.2-1.5,5
						c0.1,0,0.2,0,0.4,0c0.4,0.1,0.6,0.3,0.7,0.7c0,0.1,0.5,2.9-1.3,5.2c0.1,0,0.2,0.1,0.3,0.1c0.4,0.2,0.7,0.6,0.6,1.1
						c-0.1,0.2-1.1,4.1-3,6.5c0.2,0.1,0.4,0.3,0.7,0.5c0.3,0.2,0.4,0.6,0.3,0.9c-0.1,0.2-1.2,3.8-4.3,5.4c0.3,0.3,0.5,0.7,0.6,1.2
						c0.1,0.2,0,0.5-0.1,0.7c-0.1,0.1-1.6,2.7-5.2,3.4c0.2,0.3,0.3,0.6,0.4,0.8c0.1,0.4,0,0.8-0.3,1c-0.1,0.1-2.5,2.1-5.6,2.5
						c0.2,0.5,0.3,1,0.3,1.5c0,0.4-0.3,0.7-0.6,0.8c0,0-2.9,1-5.8,0.8c0.2,0.3,0.3,0.7,0.4,1.1c0.1,0.4-0.2,0.8-0.6,1
						C61.6,46.8,60.5,46.9,59.2,46.9z M48.4,43.6c0.1,0,0.2,0,0.3,0.1c3,1.2,9.3,1.5,11.7,1.4c-0.3-0.6-0.8-1-1-1.2
						c-0.3-0.3-0.4-0.8-0.2-1.1c0.2-0.4,0.7-0.5,1.1-0.4c2.1,0.8,5,0.3,6.4,0c-0.1-0.5-0.4-0.9-0.6-1.1c-0.2-0.3-0.2-0.7-0.1-1
						c0.2-0.3,0.5-0.5,0.8-0.5c2.3,0.1,4.4-1,5.3-1.7c-0.3-0.4-0.6-0.8-0.8-1c-0.2-0.3-0.3-0.6-0.2-0.9c0.1-0.3,0.4-0.5,0.8-0.5
						c3-0.1,4.6-1.7,5.1-2.4c-0.3-0.5-0.9-0.8-0.9-0.8c-0.3-0.2-0.5-0.5-0.5-0.9c0-0.4,0.3-0.7,0.7-0.8c2.5-0.5,3.8-3,4.3-4.1
						c-0.4-0.2-0.6-0.1-0.6-0.1c-0.4,0.2-0.9,0-1.1-0.4s0-0.9,0.4-1.2c1.6-1,2.9-4,3.4-5.8c-0.5,0-0.9,0.1-0.9,0.1
						c-0.4,0.1-0.9-0.1-1-0.5c-0.2-0.4,0-0.9,0.4-1.1c2-1.2,2.3-3.1,2.3-4.1c-0.3,0.1-0.6,0.2-0.7,0.3c-0.4,0.2-0.9,0.1-1.2-0.2
						c-0.3-0.4-0.2-0.9,0.1-1.2c0.5-0.5,1.4-3.2,2.1-5.6c-0.8-0.5-2.3-0.8-3.3-1c-0.3,0-0.5-0.2-0.7-0.5c-0.1-0.3-0.1-0.6,0-0.8
						C80,4,80,3.6,79.9,3.2c-3.2-0.3-5,0.9-5.1,0.9c-0.3,0.2-0.8,0.2-1.1-0.1c-0.3-0.3-0.4-0.7-0.2-1c0.1-0.3,0.2-0.5,0.2-0.8
						c-1.1,0.5-2.2,1.4-2.6,1.8c-0.3,0.3-0.8,0.3-1.1,0.1c-0.3-0.2-0.5-0.7-0.3-1.1c0.1-0.4,0.1-0.9,0.1-1.3
						c-3.2,0.5-4.3,2.4-4.4,2.5c-0.2,0.4-0.6,0.5-1,0.4c-0.4-0.1-0.7-0.4-0.7-0.8c0-0.4-0.3-0.7-0.5-0.8c-0.8,0.7-1.6,3.3-1.9,5
						c0,0,0,0,0,0c-0.1,0.5-0.5,0.8-1,0.7c-0.5-0.1-0.8-0.5-0.7-1c0,0,0,0,0,0c0-0.2,0-0.5-0.1-0.7c-1.3,1-2.8,3.6-3.6,5.2
						c-0.2,0.4-0.6,0.6-1.1,0.5c-0.4-0.1-0.7-0.5-0.6-1c0-0.3,0-0.7-0.1-1.1c-3,2.8-3.7,7-3.7,7.1c-0.1,0.4-0.5,0.7-0.9,0.7
						c-0.5,0-0.8-0.4-0.8-0.8c0-0.3-0.1-0.5-0.1-0.8c-1.6,3.8-1.2,7.2-1.2,7.2c0.1,0.5-0.3,0.9-0.7,1c-0.5,0.1-0.9-0.2-1-0.7
						c-0.1-0.4-0.2-0.8-0.4-1.1c-2.5,7.8,3.6,18.8,3.7,18.9C49.1,42.8,48.9,43.4,48.4,43.6C48.5,43.6,48.4,43.6,48.4,43.6z"/>
				</g>
			</g>
		</g>
	</g>
</g>
</svg>
