<svg xmlns="http://www.w3.org/2000/svg" xmlns:xlink="http://www.w3.org/1999/xlink" width="373" height="45" viewBox="0 0 373 45">
  <defs>
    <style>
      .cls-1 {
        fill: #fff;
        fill-rule: evenodd;
        filter: url(#filter);
      }
    </style>
    <filter id="filter" x="196" y="2032" width="373" height="45" filterUnits="userSpaceOnUse">
      <feOffset result="offset" dx="0.819" dy="0.574" in="SourceAlpha"/>
      <feGaussianBlur result="blur" stdDeviation="2.646"/>
      <feFlood result="flood" flood-color="#ccd3dc"/>
      <feComposite result="composite" operator="in" in2="blur"/>
      <feBlend result="blend" in="SourceGraphic"/>
    </filter>
  </defs>
  <path id="Add_tO_Cart_" data-name="Add tO Cart&gt;&gt;" class="cls-1" d="M208.28,2043.31h5.041l-8.932,19.92H201.2l0,4.78,11.047-.01,0-4.78-2.52.01,1.3-3.07h11.131l1.347,3.06h-2.269l0,4.78,10.963-.01,0-4.78H229l-11.065-24.69-9.661.01Zm8.32,3.89,3.787,8.81h-7.561Zm19.859-3.91h3.234l0.015,19.91-3.234.01,0,4.78,14.365-.01c9.031-.01,15.789-6.35,15.783-14.78-0.007-8.55-6.648-14.71-15.805-14.7l-14.365.01Zm14.407-.01a9.962,9.962,0,1,1,.015,19.92h-5.923l-0.015-19.92h5.923Zm21.751-.02h3.235l0.015,19.92h-3.235l0,4.78,14.365-.01c9.031-.01,15.789-6.35,15.782-14.77-0.006-8.56-6.647-14.72-15.8-14.71l-14.365.01Zm14.408-.01a9.962,9.962,0,1,1,.015,19.92h-5.923l-0.015-19.92h5.923Zm41.382,24.67,11.677-.01,0-4.78h-3.234l-0.015-19.92h5.25l0,3.27h4.453l-0.006-8.06-24.824.02,0.006,8.05h4.452l0-3.27h5.418l0.015,19.91-3.192.01Zm22.75-14.78c0.007,8.72,6.732,15.22,15.763,15.21s15.788-6.55,15.782-15.23c-0.007-8.81-6.648-15.22-15.805-15.21C358.034,2037.91,351.151,2044.63,351.157,2053.14Zm5.629,0.08c0-6.04,4.318-10.61,10.156-10.62,5.923,0,10.169,4.57,10.173,10.6A10.172,10.172,0,1,1,356.786,2053.22Zm71.78,8.21s-3.065,2.01-9.029,2.02a10.287,10.287,0,0,1-10.215-10.27c0-6.04,3.646-10.4,9.695-10.41,3.906,0,7.268,2.14,7.439,5.57h4.7l-0.049-9.98h-4.7l0.338,3.07c-0.168-.59-1.388-3.57-8.613-3.56-7.854,0-14.444,6.72-14.438,15.23,0.007,9.1,7.069,15.26,16.6,15.25a19.065,19.065,0,0,0,9.869-2.48Zm6.3,6.41,11.047-.01,0-4.78h-2.52l1.3-3.06,11.131-.01,1.346,3.06H454.9l0,4.78,10.963-.01,0-4.78-3.193.01-11.107-24.69h-2.436l-11.071,24.7-3.192.01Zm15.4-20.81,3.787,8.8-7.56.01Zm20.069-3.92h3.192l0.015,19.92h-3.192l0,4.78,12.433-.01,0-4.78h-4.032l0-3.77h3.234c0.546,0,1.05,0,1.554-.05,3.572,2.01,3.157,8.77,10.508,8.76a13.882,13.882,0,0,0,2.814-.25l0-4.62h-1.176c-3.57.01-4.161-3.26-6.472-5.23,3.9-1.77,5.582-5,5.579-9.06,0-6.17-3.956-10.48-11.811-10.48l-12.643.01Zm12.265-.01c4.914,0,6.554,2.47,6.557,5.7s-1.676,5.83-6.548,5.83l-3.865.01-0.008-11.53Zm25.131,24.68,11.677-.01,0-4.78-3.234.01-0.015-19.92,5.251-.01,0,3.27h4.452l-0.006-8.05-24.824.02,0.006,8.05h4.453l0-3.27,5.419-.01,0.015,19.92h-3.193Zm37.159-12.06,0-4.32-12.817-8.04,0,4.57,9.245,5.61-9.237,5.67,0,4.49Zm15.2-.01,0-4.32-12.818-8.04,0,4.57,9.245,5.61-9.237,5.67,0,4.49Z" transform="translate(-196 -2032)"/>
</svg>
