<?xml version="1.0" encoding="UTF-8"?><svg id="Layer_2" xmlns="http://www.w3.org/2000/svg" viewBox="0 0 195.04 9.1"><defs><style>.cls-1{fill:#a8b338;}</style></defs><g id="Layer_1-2"><g><path class="cls-1" d="M3.6,1.57h-.89l1.26,4.42L6.15,.15h.89l2.2,5.84v.02l1.25-4.44h-.92V.15h3.6V1.57h-1.02l-2.24,7.36h-1.04L6.57,3.11l-2.25,5.82h-1.02L1.04,1.57H0V.15H3.6V1.57Z"/><path class="cls-1" d="M17.02,.15h3.47V1.57h-.96V7.51h.96v1.42h-3.47v-1.42h.96V1.57h-.96V.15Z"/><path class="cls-1" d="M26.65,7.51h.95V1.57h-1.61v.98h-1.32V.15h7.39V2.55h-1.32v-.98h-1.56V7.51h.96v1.42h-3.47v-1.42Z"/><path class="cls-1" d="M42.06,.15h3.47V1.57h-.96V7.51h.95v1.42h-3.46v-1.42h.96v-2.04h-4.29v2.04h.95v1.42h-3.46v-1.42h.96V1.57h-.96V.15h3.47V1.57h-.96v2.52h4.29V1.57h-.96V.15Z"/><path class="cls-1" d="M54.5,0c2.72,0,4.7,1.91,4.7,4.54s-2.01,4.54-4.7,4.54-4.69-1.94-4.69-4.54,2.05-4.54,4.69-4.54Zm.01,7.71c1.7,0,3.02-1.36,3.02-3.15s-1.26-3.16-3.02-3.16-3.02,1.36-3.02,3.16,1.32,3.15,3.02,3.15Z"/><path class="cls-1" d="M69.06,.15h3.47V1.57h-.96v3.72c0,2.62-1.49,3.8-3.69,3.8s-3.64-1.17-3.64-3.8V1.57h-.96V.15h3.47V1.57h-.96v3.72c0,1.67,.76,2.37,2.09,2.37s2.14-.7,2.14-2.39V1.57h-.96V.15Z"/><path class="cls-1" d="M78.46,7.51h.95V1.57h-1.61v.98h-1.32V.15h7.39V2.55h-1.32v-.98h-1.56V7.51h.96v1.42h-3.47v-1.42Z"/><path class="cls-1" d="M100.03,2.55v-.98h-2.84v2.46h2.12v1.38h-2.12v2.1h2.84v-.97h1.32v2.4h-6.67v-1.42h.96V1.57h-.96V.15h6.67V2.55h-1.32Z"/><path class="cls-1" d="M109.08,8.94h-3.37v-1.42h1.06l2.11-2.77-2.19-3.16h-.99V.15h3.37V1.57h-.55l1.31,1.95,1.35-1.95h-.59V.15h3.37V1.57h-1.02l-2.16,3.04,2.14,2.9h1.05v1.41h.01s-3.39,.01-3.39,.01v-1.42h.46l-1.25-1.69-1.24,1.69h.5v1.42Z"/><path class="cls-1" d="M125.72,8.35s-1.11,.74-2.94,.74c-2.84,0-4.94-1.84-4.94-4.55,0-2.54,1.96-4.54,4.3-4.54,2.15,0,2.51,.89,2.56,1.06l-.1-.91h1.4V3.12s-1.39,0-1.39,0c-.05-1.02-1.05-1.66-2.21-1.66-1.8,0-2.89,1.3-2.89,3.1s1.45,3.06,3.04,3.06c1.77,0,2.69-.6,2.69-.6l.47,1.32Z"/><path class="cls-1" d="M135.8,2.55v-.98h-2.84v2.46h2.12v1.38h-2.12v2.1h2.84v-.97h1.32v2.4h-6.67v-1.42h.96V1.57h-.96V.15h6.67V2.55h-1.32Z"/><path class="cls-1" d="M141.73,.15h3.65c2.34,0,3.51,1.29,3.51,3.12s-1.16,3.11-3.81,3.11h-.84v1.12h1.49v1.42h-4v-1.42h.96V1.57h-.96V.15Zm2.51,1.42v3.44h1.02c1.45,0,1.95-.77,1.95-1.74s-.49-1.7-1.95-1.7h-1.02Z"/><path class="cls-1" d="M154.65,7.51h.95V1.57h-1.61v.98h-1.32V.15h7.39V2.55h-1.32v-.98h-1.56V7.51h.96v1.42h-3.47v-1.42Z"/><path class="cls-1" d="M164.22,.15h3.47V1.57h-.96V7.51h.96v1.42h-3.47v-1.42h.96V1.57h-.96V.15Z"/><path class="cls-1" d="M176.66,0c2.72,0,4.7,1.91,4.7,4.54s-2.01,4.54-4.7,4.54-4.69-1.94-4.69-4.54,2.05-4.54,4.69-4.54Zm.01,7.71c1.7,0,3.02-1.36,3.02-3.15s-1.26-3.16-3.02-3.16-3.02,1.36-3.02,3.16,1.32,3.15,3.02,3.15Z"/><path class="cls-1" d="M191.57,.15h3.47V1.57h-.96v7.36h-1.16l-4.76-5.76V7.51h.96v1.42h-3.47v-1.42h.96V1.57h-.96V.15h1.87l5.01,5.86V1.57h-.96V.15Z"/></g></g></svg>