<?xml version="1.0" encoding="utf-8"?>
<!-- Generator: Adobe Illustrator 27.1.1, SVG Export Plug-In . SVG Version: 6.00 Build 0)  -->
<svg version="1.1" id="Layer_1" xmlns="http://www.w3.org/2000/svg" xmlns:xlink="http://www.w3.org/1999/xlink" x="0px" y="0px"
	 viewBox="0 0 75.1 25.8" style="enable-background:new 0 0 75.1 25.8;" xml:space="preserve">
<style type="text/css">
	.st0{fill:none;stroke:#9D7D2D;stroke-miterlimit:10;}
	.st1{fill:#F3DA42;}
	.st2{fill:none;stroke:#9D7D2D;stroke-width:0.75;stroke-linecap:round;stroke-linejoin:round;stroke-miterlimit:10;}
	.st3{fill:#9D7D2D;}
	.st4{fill:#FFFFFF;}
	.st5{fill:#C02B37;}
	.st6{fill:#A17D23;}
	.st7{fill:#F3DA42;stroke:#9D7D2D;stroke-width:0.75;stroke-linecap:round;stroke-linejoin:round;}
	.st8{fill:#FFFDF5;}
	.st9{fill:#191818;}
	.st10{clip-path:url(#SVGID_00000147192648744187756760000002031626784360471441_);}
	.st11{fill:#010101;}
	.st12{fill:#B9E5DD;}
	.st13{fill:#235B4E;}
	.st14{fill:#AA97C8;}
	.st15{fill:#AE95DA;}
	.st16{fill:#5F4776;}
	.st17{clip-path:url(#SVGID_00000057855797574372364830000014222495617548346023_);}
	.st18{fill:#AE95DA;stroke:#5F4776;stroke-width:4;stroke-linecap:round;stroke-linejoin:round;}
	.st19{fill:#FFFCF3;}
	.st20{clip-path:url(#SVGID_00000007409567894221045860000004479196527141076643_);}
	.st21{fill:#5F4777;}
	.st22{fill:#FFFDF4;}
	.st23{fill:#A24596;}
	.st24{clip-path:url(#SVGID_00000089562204472066948200000011522467111778654343_);}
	.st25{clip-path:url(#SVGID_00000058558559389550539390000008427124034703836586_);}
	.st26{fill:#F5D93F;}
	.st27{fill:#F5D93F;stroke:#A17D23;stroke-width:0.5;stroke-linecap:round;stroke-linejoin:round;stroke-miterlimit:10;}
	.st28{fill:#9F2241;}
	.st29{fill:#FFB4AB;}
	.st30{clip-path:url(#SVGID_00000048484889625320178920000012490077361590875571_);}
	.st31{fill:none;stroke:#9F2241;stroke-width:0.75;stroke-linecap:round;stroke-linejoin:round;stroke-miterlimit:10;}
	.st32{fill:#E9E8D6;}
	.st33{fill:#2D0F13;}
	.st34{fill:#F7B1AA;}
</style>
<g>
	<rect y="5" class="st5" width="63.5" height="16"/>
	<polygon class="st5" points="62.2,0 75.1,12.9 62.2,25.8 	"/>
	<g>
		<path class="st4" d="M13.2,11.1l-1.3,0.4c-0.2-0.5-0.5-0.8-1.1-0.8c-0.6,0-0.9,0.2-0.9,0.6c0,0.2,0.1,0.3,0.2,0.4
			c0.1,0.1,0.4,0.2,0.8,0.3c0.7,0.1,1.2,0.3,1.5,0.4c0.3,0.1,0.6,0.4,0.8,0.7c0.2,0.3,0.3,0.6,0.3,1c0,0.6-0.2,1.1-0.7,1.5
			c-0.5,0.4-1.1,0.7-2,0.7c-0.7,0-1.2-0.2-1.7-0.5c-0.5-0.3-0.8-0.8-0.9-1.4l1.4-0.3c0.2,0.6,0.6,0.9,1.3,0.9c0.4,0,0.6-0.1,0.8-0.2
			s0.3-0.3,0.3-0.5c0-0.2-0.1-0.3-0.2-0.4c-0.2-0.1-0.5-0.2-0.9-0.3c-0.8-0.2-1.4-0.4-1.8-0.7c-0.4-0.3-0.5-0.7-0.5-1.3
			c0-0.6,0.2-1.1,0.6-1.5c0.4-0.4,1-0.6,1.7-0.6C12,9.6,12.9,10.1,13.2,11.1z"/>
		<path class="st4" d="M19.8,9.7v6.6h-1.5v-2.7h-2.1v2.7h-1.5V9.7h1.5v2.6h2.1V9.7H19.8z"/>
		<path class="st4" d="M23.9,16.4c-0.9,0-1.6-0.3-2.1-1c-0.5-0.7-0.7-1.5-0.7-2.4c0-1,0.2-1.8,0.7-2.4s1.2-1,2.1-1
			c0.9,0,1.6,0.3,2.1,1c0.5,0.7,0.7,1.5,0.7,2.4c0,1-0.2,1.8-0.7,2.4C25.5,16,24.8,16.4,23.9,16.4z M23.9,10.8
			c-0.8,0-1.2,0.7-1.2,2.1c0,1.4,0.4,2.1,1.2,2.1c0.8,0,1.2-0.7,1.2-2.1C25.1,11.5,24.7,10.8,23.9,10.8z"/>
		<path class="st4" d="M29.6,13.8v2.4H28V9.7h2.6c0.6,0,1,0.1,1.3,0.2s0.6,0.3,0.8,0.7c0.2,0.3,0.4,0.7,0.4,1.2
			c0,0.3-0.1,0.6-0.2,0.9s-0.3,0.6-0.5,0.7c-0.2,0.2-0.5,0.3-0.7,0.4s-0.6,0.1-1,0.1H29.6z M29.5,12.6h1c0.4,0,0.7-0.1,0.8-0.3
			s0.2-0.4,0.2-0.6c0-0.3-0.1-0.5-0.3-0.6c-0.2-0.2-0.4-0.2-0.8-0.2h-1V12.6z"/>
		<path class="st4" d="M42.1,9.7v6.6h-1.3l-2.6-4.4c0,0.1,0,0.2,0,0.2c0,0.1,0,0.2,0,0.3v3.9h-1.2V9.7h1.7l2.2,3.9
			c0-0.2,0-0.3,0-0.4V9.7H42.1z"/>
		<path class="st4" d="M46.2,16.4c-0.9,0-1.6-0.3-2.1-1c-0.5-0.7-0.7-1.5-0.7-2.4c0-1,0.2-1.8,0.7-2.4s1.2-1,2.1-1
			c0.9,0,1.6,0.3,2.1,1c0.5,0.7,0.7,1.5,0.7,2.4c0,1-0.2,1.8-0.7,2.4C47.8,16,47.1,16.4,46.2,16.4z M46.2,10.8
			c-0.8,0-1.2,0.7-1.2,2.1c0,1.4,0.4,2.1,1.2,2.1c0.8,0,1.2-0.7,1.2-2.1C47.4,11.5,47,10.8,46.2,10.8z"/>
		<path class="st4" d="M58.1,9.7l-1.7,6.6h-1.5l-1.1-4.4l-1,4.4h-1.5l-1.7-6.6h1.6l0.9,4c0,0,0,0.1,0.1,0.2c0,0,0,0.1,0.1,0.2
			l1.1-4.4h1.4l1.1,4.4c0-0.1,0.1-0.2,0.1-0.4l0.9-4H58.1z"/>
	</g>
</g>
</svg>
