<?xml version="1.0" encoding="utf-8"?>
<!-- Generator: Adobe Illustrator 27.1.1, SVG Export Plug-In . SVG Version: 6.00 Build 0)  -->
<svg version="1.1" id="Layer_1" xmlns="http://www.w3.org/2000/svg" xmlns:xlink="http://www.w3.org/1999/xlink" x="0px" y="0px"
	 viewBox="0 0 271.7 77" style="enable-background:new 0 0 271.7 77;" xml:space="preserve">
<style type="text/css">
	.st0{fill:#F3DA42;}
	.st1{fill:#9D7D2D;}
	.st2{fill:#FFFFFF;}
	.st3{fill:#C02B37;}
	.st4{fill:#A17D23;}
	.st5{fill:#F3DA42;stroke:#9D7D2D;stroke-width:0.5;stroke-linecap:round;stroke-linejoin:round;}
	.st6{fill:#FFFDF5;}
	.st7{fill:#191818;}
	.st8{clip-path:url(#SVGID_00000103236210933769024840000008714125137996351678_);}
	.st9{fill:#010101;}
	.st10{fill:#B9E5DD;}
	.st11{fill:#235B4E;}
	.st12{fill:#FFFDF4;}
	.st13{fill:#A24596;}
	.st14{clip-path:url(#SVGID_00000173839651794543530320000017543920368665065097_);}
	.st15{clip-path:url(#SVGID_00000127005207691374864370000002715266270712892593_);}
	.st16{fill:#F5D93F;}
	.st17{fill:#F5D93F;stroke:#A17D23;stroke-width:0.25;stroke-linecap:round;stroke-linejoin:round;stroke-miterlimit:10;}
	.st18{clip-path:url(#SVGID_00000052812070112505085620000011218756462140351418_);}
	.st19{clip-path:url(#SVGID_00000117675472866476301040000011002873546460613796_);}
	.st20{fill:#FFB4AB;}
	.st21{fill:#9F2241;}
	.st22{fill:#E9E8D6;}
	.st23{fill:#2D0F13;}
	.st24{fill:#F7B1AA;}
	.st25{fill:#5F4777;}
	.st26{fill:#5F4776;}
	.st27{fill:#AA97C8;}
	.st28{fill:#AE95DA;}
	.st29{clip-path:url(#SVGID_00000021099905510729235390000016268824295967396532_);}
	.st30{fill:#AE95DA;stroke:#5F4776;stroke-width:4;stroke-linecap:round;stroke-linejoin:round;}
	.st31{fill:#FFFCF3;}
	.st32{clip-path:url(#SVGID_00000078038442298801925420000013877915778314836407_);}
</style>
<g>
	<g>
		<path id="XMLID_00000037689751579014707070000002450223594826161855_" class="st2" d="M66.3,9.3L66.5,9c0.6-0.8,1.6-1.9,3.2-3.2
			c3.9-3,9-1.6,10.9-0.5c4.2,2.4,5.5,7,5.8,10.4c0.2,2.1-0.1,36.3-0.1,36.7c0,0.1,0,0.1-0.1,0.1h-9.6c0,0-0.1,0-0.1,0c0,0,0,0,0-0.1
			c0-1.4,0.1-33.1,0-34.2c-0.1-1.1-0.3-2.2-1-3.2c-0.4-0.5-1.2-0.8-2-0.8c-0.8,0-1.5,0.3-1.8,0.8c-0.7,1-0.8,2.4-0.9,3.3l0,0.1
			c-0.1,1.3-0.2,32.6-0.2,33.9c0,0.1,0,0.1-0.1,0.1h-4.7l0,0h-4.7c-0.1,0-0.1,0-0.1-0.1c0-1.3-0.1-32.6-0.2-33.9l0-0.1
			c-0.1-0.9-0.2-2.2-0.9-3.3c-0.3-0.5-1-0.8-1.8-0.8c-0.8,0-1.6,0.3-2,0.8c-0.8,1-0.9,2.1-1,3.2c-0.1,1.1,0,32.8,0,34.2
			c0,0,0,0.1,0,0.1c0,0,0,0-0.1,0h-9.6c-0.1,0-0.1,0-0.1-0.1c0-0.3-0.3-34.5-0.1-36.7c0.4-3.4,1.7-7.9,5.8-10.4
			c1.9-1.1,7-2.4,10.9,0.5c1.7,1.3,2.6,2.4,3.2,3.2l0.2,0.3c0.3,0.4,0.4,0.4,0.4,0.4C65.9,9.7,66,9.7,66.3,9.3z"/>
		<path id="XMLID_00000011722051306433899100000012357680563672565400_" class="st2" d="M169.1,52.4c-3.1-0.2-7.9-3.8-8.1-8.6
			c-0.1-2-0.2-28.5,0-31.9c0.1-3.2,3-6.2,5.6-6.8c2.3-0.6,15.2-0.6,15.3-0.6l0,0c0.1,0,0.1,0,0.1,0.1v8.1c0,0.1,0,0.1-0.1,0.1
			c-0.1,0-8.1,0-9.6,0c-0.4,0-0.7,0.1-1,0.3c-0.4,0.4-0.4,1.1-0.4,1.3l0,0v7.6c0,0.8,0.1,1.3,0.5,1.6c0.2,0.2,0.5,0.3,0.9,0.3
			c1.4,0,9.5,0,9.6,0c0.1,0,0.1,0,0.1,0.1v8.2c0,0.1,0,0.1-0.1,0.1h-9.6c-0.5,0-0.8,0.1-1,0.4c-0.3,0.4-0.3,0.9-0.3,1.1l0,0.1v7.9
			l0,0c0,0.2,0,1,0.4,1.4c0.2,0.2,0.5,0.4,0.9,0.4h9.6c0.1,0,0.1,0,0.1,0.1v8.4c0,0.1-0.1,0.1-0.1,0.1
			C181.8,52.4,172.2,52.6,169.1,52.4z"/>
		<path id="XMLID_00000025410751560786554090000008132333120642565763_" class="st2" d="M103.6,52.4c-3.1-0.2-7.9-3.8-8.1-8.6
			c-0.1-2-0.2-28.5,0-31.9c0.1-3.2,3-6.2,5.6-6.8c2.3-0.6,15.2-0.6,15.3-0.6l0,0c0.1,0,0.1,0,0.1,0.1v8.1c0,0.1,0,0.1-0.1,0.1
			c-0.1,0-8.1,0-9.6,0c-0.4,0-0.7,0.1-1,0.3c-0.4,0.4-0.4,1.1-0.4,1.3l0,0v7.6c0,0.8,0.1,1.3,0.5,1.6c0.2,0.2,0.5,0.3,0.9,0.3
			c1.4,0,9.5,0,9.6,0c0.1,0,0.1,0,0.1,0.1v8.2c0,0.1,0,0.1-0.1,0.1H107c-0.5,0-0.8,0.1-1,0.4c-0.3,0.4-0.3,0.9-0.3,1.1l0,0.1v7.9
			l0,0c0,0.2,0,1,0.4,1.4c0.2,0.2,0.5,0.4,0.9,0.4h9.6c0.1,0,0.1,0,0.1,0.1v8.4c0,0.1-0.1,0.1-0.1,0.1
			C116.4,52.4,106.8,52.6,103.6,52.4z"/>
		<path id="XMLID_00000181083879061325039380000002569302634405485454_" class="st2" d="M140.3,29.9c1.3-0.7,1.6-1.9,1.7-2.8
			c0.1-1.4,0.3-21,0.3-21.8c0-0.1,0-0.1,0.1-0.1h9.5c0,0,0.1,0,0.1,0c0,0,0,0,0,0.1c0,0.2,0,18.7-0.2,20.6
			c-0.7,8.3-6.2,11.2-6.8,11.6c-0.5,0.2-0.5,0.6-0.6,0.9l0,0.2c-0.1,0.4,0,11.9,0,14.2c0,0,0,0.1,0,0.1c0,0,0,0-0.1,0h-9.9
			c0,0-0.1,0-0.1,0c0,0,0,0,0-0.1c0-2.3,0.1-13.8,0-14.2l0-0.2c-0.1-0.4-0.2-0.7-0.6-0.9c-0.6-0.3-6-3.2-6.8-11.6
			c-0.2-1.9-0.2-20.4-0.2-20.6c0,0,0-0.1,0-0.1c0,0,0,0,0.1,0h9.5c0.1,0,0.1,0,0.1,0.1c0,0.8,0.2,20.4,0.3,21.8
			c0.1,0.9,0.4,2.1,1.7,2.8l0,0C138.8,30.1,139.9,30.2,140.3,29.9C140.2,30,140.3,29.9,140.3,29.9z"/>
		<path id="XMLID_00000143605168049339908900000008941011329548671917_" class="st2" d="M193.3,52.3V4.9c0-0.1,0.1-0.1,0.1-0.1
			c0.1,0,11.9-0.4,14.6-0.1c2.9,0.3,6,1.1,8.9,4.4c4.1,4.7,2.5,13.9-1.8,17.7c-0.3,0.3-0.5,0.5-0.4,0.7c0,0.3,0.3,0.4,0.6,0.6
			l0.7,0.4c2.3,1.7,3.6,5.5,3.7,8.3c0.1,1.8,0.1,15.4,0.1,15.5c0,0.1,0,0.1-0.1,0.1h-9.7c-0.1,0-0.1,0-0.1-0.1
			c0-0.1-0.2-12.5-0.3-16.4c-0.1-1.8-1.1-3.9-5.5-3.7l-0.1,0c-0.3,0-0.5,0.2-0.6,0.3c-0.2,0.3-0.2,0.6-0.2,0.7l0,0.6v18.6
			c0,0.1,0,0.1-0.1,0.1h-9.6C193.3,52.4,193.3,52.4,193.3,52.3z M202.9,12.8L202.9,12.8l0,10.8c0,0.3,0.1,0.6,0.2,0.7
			c0.3,0.3,0.6,0.2,0.9,0.2h0.1c3.1,0,4.9-3.1,5.1-6.2c0.1-3-1.3-6.1-4.8-6.4C203.4,11.9,203,12,202.9,12.8z"/>
		<path id="XMLID_00000127754877933098138020000014564744638241616794_" class="st2" d="M239.8,52.5c-0.1,0-0.1-0.1-0.1-0.1v-8.6
			c0-0.1,0-0.1,0.1-0.1h10.5c0.3,0,0.6-0.3,0.6-0.6v-10c0-0.3-0.3-0.6-0.6-0.6c0,0-3,0-4.4-0.2c-2-0.2-4.6-1.3-5.6-5.1
			c-1.1-4.2-1.1-14.4,1-18.1c1.7-3,5.1-3.9,6.1-4c2.3-0.4,12.8-0.4,12.9-0.4c0.1,0,0.1,0,0.1,0.1v8.3c0,0.1,0,0.1-0.1,0.1l-10,0.2
			c-0.3,0-0.6,0.3-0.6,0.6v9.2c0,0.2,0.1,0.3,0.2,0.4c0.1,0.1,0.2,0.2,0.4,0.2c0,0,3.9,0,5.5,0.4c2.6,0.6,4.3,2.3,4.8,4.6
			c0.5,2.7,0.6,13.8,0,16.5c-0.6,2.3-1.9,5.6-6.4,6.7C250.7,53,239.9,52.5,239.8,52.5L239.8,52.5L239.8,52.5z"/>
	</g>
	<g>
		<path id="XMLID_00000065044021925328794770000016328252899858876298_" class="st4" d="M47.1,67.9c0,5.6,3.6,9.1,9.5,9.1
			c7.2,0,8.9-4,9.4-6.5l0.1-0.5h-4L62,70.3c-0.3,1.1-1.7,3.1-5.1,3.1c-2.7,0-5.6-1.4-5.6-5.2c0-3.5,2.1-5.4,5.8-5.4
			c3.8,0,4.7,2.5,4.7,2.5l0.1,0.3h4l-0.2-0.7c-1.3-4.7-5.5-5.7-8.8-5.7C50.8,59.3,47.1,62.5,47.1,67.9z"/>
		<path id="XMLID_00000058549952850004653700000002583780945146204802_" class="st4" d="M79.5,59.7H76v16.9h15.6v-3.7
			c0,0-10.7,0-11.6,0c0-0.8,0-13.2,0-13.2H79.5z"/>
		<path id="XMLID_00000144318375374789410440000011653600093847837369_" class="st4" d="M115.5,59.7h-14.8v16.9h15.5V73
			c0,0-10.6,0-11.5,0c0-0.6,0-2.7,0-3.3c0.8,0,9.6,0,9.6,0v-3.6c0,0-8.8,0-9.6,0c0-0.6,0-2.2,0-2.8c0.8,0,11.2,0,11.2,0v-3.6H115.5z
			"/>
		<path id="XMLID_00000033336965136643762380000006318196952023836050_" class="st4" d="M137.4,59.7h-3.8l-8.3,16.9h4.3
			c0,0,1.5-3.2,1.7-3.7c0.5,0,8.1,0,8.6,0c0.2,0.5,1.7,3.7,1.7,3.7h4.3l-8.2-16.9H137.4z M135.7,63.7c0.6,1.2,2.2,4.7,2.6,5.6
			c-1,0-4.3,0-5.3,0C133.5,68.4,135.1,64.9,135.7,63.7z"/>
		<path id="XMLID_00000104673441372485900160000002060229796521071488_" class="st4" d="M172.3,59.7h-3.4c0,0,0,9,0,10.8
			c-1.3-1.4-10-10.8-10-10.8h-3.9v16.9h3.9c0,0,0-9.4,0-11.3c1.3,1.4,10.5,11.3,10.5,11.3h3.5V59.7H172.3z"/>
		<path id="XMLID_00000114057802258281506190000017822032851993200044_" class="st4" d="M193.3,59.7h-0.4v16.9h8.3
			c5.9,0,9.4-3.2,9.4-8.5c0-5.4-3.4-8.3-9.5-8.3H193.3z M199.6,63.3c5.1,0,6.9,1.3,6.9,4.8c0,2.9-1.2,4.9-6.9,4.9c0,0-2.1,0-2.7,0
			c0-0.8,0-8.9,0-9.7C197.5,63.3,199.6,63.3,199.6,63.3z"/>
		<path id="XMLID_00000134231005435687174710000009049501097954161547_" class="st4" d="M230.7,59.7h-3.8l-8.3,16.9h4.3
			c0,0,1.5-3.2,1.7-3.7c0.5,0,8.1,0,8.6,0c0.2,0.5,1.7,3.7,1.7,3.7h4.3l-8.2-16.9H230.7z M228.9,63.7c0.6,1.2,2.2,4.7,2.6,5.6
			c-1,0-4.3,0-5.3,0C226.7,68.4,228.3,64.9,228.9,63.7z"/>
		<path id="XMLID_00000082352591794463427710000012307502396575999415_" class="st4" d="M263,59.7h-4.1c0,0-4.7,5.8-5.3,6.5
			c-0.6-0.7-5.3-6.5-5.3-6.5h-5c0,0,8.1,9.9,8.3,10.2c0,0.3,0,6.7,0,6.7h4c0,0,0-6.4,0-6.7c0.2-0.2,8.3-10.2,8.3-10.2H263z"/>
	</g>
	<g>
		<path id="XMLID_00000022542119634596807110000016725489575836134570_" class="st4" d="M8.6,26L8.6,26l-2.1-7.3H0v1.6h1.1
			c0.5,0,0.7,0.3,0.7,0.7v7.3c0,0.4-0.3,0.7-0.7,0.7H0v1.6h5.2V29H4.4c-0.4,0-0.7-0.3-0.7-0.7v-7.8h0l2.8,10.1h2.6l2.8-9.9h0v7.6
			c0,0.4-0.3,0.7-0.7,0.7h-0.8v1.6h6.5V29h-1c-0.4,0-0.7-0.3-0.7-0.7V21c0-0.4,0.3-0.7,0.7-0.7h1v-1.6h-6.4L8.6,26z"/>
		<path id="XMLID_00000001630464863395342040000007569406152050049177_" class="st4" d="M24.4,21.9c-1.1,0-1.7,0.8-2.1,1.7h0v-1.4
			H18v1.4h0.7c0.5,0,0.6,0.3,0.6,0.8v4c0,0.5-0.1,0.8-0.6,0.8H18v1.4h5.8v-1.4H23c-0.5,0-0.6-0.3-0.6-0.8v-3.2
			c0-0.9,0.6-2.1,1.5-2.1c0.2,0,0.4,0,0.6,0.2c-0.6,0.1-0.9,0.5-0.9,1.1c0,0.8,0.7,1.2,1.4,1.2c0.8,0,1.4-0.8,1.4-1.6
			C26.4,22.8,25.5,21.9,24.4,21.9z"/>
		<path id="XMLID_00000085218409067686532050000010931620406821023664_" class="st4" d="M30.6,24c0-0.6,1-0.7,1.4-0.7
			c0.5,0,1,0.1,1.4,0.4c0.4,0.3,0.7,0.6,0.9,1.1h1.4v-2.7h-1.2l-0.2,0.5c-0.8-0.5-1.8-0.8-2.8-0.8c-1.8,0-4,0.7-4,2.8
			c0,3.3,5.6,2.4,5.6,3.9c0,0.8-1,0.8-1.5,0.8c-1,0-2.3-0.8-2.4-1.9h-1.5v3.1h1.3l0.3-0.6c0.9,0.6,2,0.8,3.2,0.8
			c1.9,0,3.8-0.8,3.8-2.9C36.2,24.4,30.6,25.6,30.6,24z"/>
		<path id="XMLID_00000181057575598110801080000004689332962428545176_" class="st4" d="M39.6,27.8c-0.8,0-1.5,0.7-1.5,1.5
			c0,0.8,0.7,1.5,1.5,1.5s1.5-0.7,1.5-1.5C41.1,28.5,40.4,27.8,39.6,27.8z"/>
	</g>
	<g id="XMLID_00000095308716579054056460000012619859962314184630_">
		<g>
			<path class="st4" d="M263.7,26.1c0.5,2.7,0.6,13.8,0,16.5c-0.6,2.3-1.9,5.6-6.4,6.7c-3.5,0.9-14.3,0.4-14.4,0.4
				c-0.1,0-0.1-0.1-0.1-0.1V41c0-0.1,0-0.1,0.1-0.1h10.5c0.3,0,0.6-0.2,0.6-0.6v-10c0-0.3-0.3-0.6-0.6-0.6c0,0-3,0-4.4-0.2
				c-2-0.2-4.6-1.3-5.6-5.1c-1.1-4.2-1-14.4,1.1-18.1c1.7-3,5.1-3.9,6.1-4C252.8,2,263.3,2,263.4,2c0.1,0,0.1,0.1,0.1,0.1v8.3
				c0,0.1-0.1,0.1-0.1,0.1l-10,0.2c-0.3,0-0.6,0.3-0.6,0.6v9.2c0,0.2,0.1,0.3,0.2,0.4c0.1,0.1,0.2,0.2,0.4,0.2c0,0,3.9,0,5.5,0.4
				C261.5,22.1,263.2,23.7,263.7,26.1z"/>
			<path class="st4" d="M222.7,34.1c0.1,1.8,0.1,15.4,0.1,15.5c0,0.1-0.1,0.1-0.1,0.1H213c-0.1,0-0.1-0.1-0.1-0.1
				c0-0.1-0.2-12.5-0.3-16.4c-0.1-1.8-1.1-3.9-5.5-3.7H207c-0.3,0-0.5,0.2-0.6,0.3c-0.2,0.3-0.2,0.6-0.2,0.7l0,0.6v18.6
				c0,0.1-0.1,0.1-0.1,0.1h-9.6c-0.1,0-0.1-0.1-0.1-0.1V2.2c0-0.1,0.1-0.1,0.1-0.1c0.1,0,11.9-0.4,14.6-0.1c2.9,0.3,6,1.1,8.9,4.4
				c4.1,4.7,2.5,13.9-1.8,17.7c-0.3,0.3-0.5,0.5-0.4,0.7c0,0.3,0.3,0.4,0.6,0.6l0.7,0.4C221.3,27.5,222.6,31.3,222.7,34.1z
				 M212.4,15.7c0.1-3-1.3-6.1-4.8-6.4c-1-0.1-1.4-0.1-1.6,0.8v0v10.8c0,0.3,0.1,0.5,0.2,0.7c0.3,0.3,0.6,0.3,0.9,0.3h0.1
				C210.4,21.9,212.2,18.7,212.4,15.7z"/>
			<path class="st4" d="M185.2,41.1v8.5c0,0.1-0.1,0.1-0.1,0.1c-0.1,0-9.8,0.2-12.9,0c-3.1-0.2-7.9-3.8-8.1-8.6
				c-0.1-2-0.2-28.5,0-31.9c0.1-3.2,3-6.2,5.6-6.8c2.3-0.6,15.2-0.6,15.3-0.6c0.1,0,0.1,0.1,0.1,0.1V10c0,0.1,0,0.1-0.1,0.1
				c-0.1,0-8.1,0-9.6,0c-0.4,0-0.7,0.1-1,0.3c-0.4,0.4-0.4,1.1-0.4,1.3l0,0v7.6c0,0.8,0.1,1.3,0.5,1.6c0.2,0.2,0.5,0.3,0.9,0.3
				c1.4,0,9.5,0,9.6,0c0.1,0,0.1,0,0.1,0.1v8.2c0,0.1,0,0.1-0.1,0.1h-9.6c-0.4,0-0.8,0.1-1,0.4c-0.3,0.4-0.3,0.9-0.3,1.1l0,0.1v7.9
				v0c0,0.2,0,1,0.4,1.4c0.2,0.2,0.5,0.3,0.9,0.3h9.6C185.1,41,185.2,41,185.2,41.1z"/>
			<path class="st4" d="M155.1,2.4C155.1,2.5,155.2,2.5,155.1,2.4c0,0.3,0,18.8-0.2,20.7c-0.7,8.3-6.2,11.2-6.8,11.6
				c-0.5,0.2-0.5,0.6-0.6,0.9l0,0.2c-0.1,0.4,0,11.9,0,14.2c0,0,0,0.1,0,0.1c0,0,0,0-0.1,0h-9.9c0,0-0.1,0-0.1,0c0,0,0,0,0-0.1
				c0-2.3,0.2-13.8,0-14.2l0-0.2c-0.1-0.3-0.2-0.7-0.6-0.9c-0.6-0.3-6-3.2-6.8-11.6c-0.2-1.9-0.2-20.4-0.2-20.6c0,0,0-0.1,0-0.1
				c0,0,0,0,0.1,0h9.5c0.1,0,0.1,0,0.1,0.1c0,0.8,0.2,20.4,0.3,21.8c0.1,0.9,0.4,2.1,1.7,2.8l0,0c0.3,0.2,1.4,0.3,1.7,0l0,0
				c1.3-0.7,1.6-1.9,1.7-2.8c0.1-1.4,0.3-21,0.3-21.8c0-0.1,0.1-0.1,0.1-0.1L155.1,2.4C155.1,2.4,155.1,2.4,155.1,2.4z"/>
			<path class="st4" d="M119.8,41.1v8.5c0,0.1,0,0.1-0.1,0.1c-0.1,0-9.8,0.2-12.9,0c-3.1-0.2-7.9-3.8-8.1-8.6
				c-0.1-2-0.2-28.5,0-31.9c0.2-3.2,3-6.2,5.6-6.8c2.3-0.6,15.2-0.6,15.4-0.6c0.1,0,0.1,0.1,0.1,0.1V10c0,0.1,0,0.1-0.1,0.1
				c-0.1,0-8.1,0-9.6,0c-0.4,0-0.7,0.1-1,0.3c-0.4,0.4-0.4,1.1-0.4,1.3v0v7.6c0,0.8,0.1,1.3,0.5,1.6c0.2,0.2,0.5,0.3,0.9,0.3
				c1.4,0,9.5,0,9.6,0c0.1,0,0.1,0,0.1,0.1v8.2c0,0.1,0,0.1-0.1,0.1h-9.6c-0.5,0-0.8,0.1-1,0.4c-0.4,0.4-0.3,0.9-0.3,1.1v0.1v7.9v0
				c0,0.2,0,1,0.4,1.4c0.2,0.2,0.5,0.3,0.9,0.3h9.6C119.7,41,119.8,41,119.8,41.1z"/>
			<path class="st4" d="M89.6,12.9c0.2,2.1-0.1,36.3-0.1,36.7c0,0.1-0.1,0.1-0.1,0.1h-9.6c0,0-0.1,0-0.1,0c0,0,0,0,0-0.1
				c0-1.4,0.1-33.1,0-34.2c-0.1-1.1-0.3-2.2-1-3.2c-0.4-0.5-1.2-0.8-2-0.8c-0.8,0-1.4,0.3-1.8,0.8c-0.7,1-0.8,2.4-0.9,3.3l0,0.1
				c-0.1,1.2-0.2,32.6-0.2,33.9c0,0.1,0,0.1-0.1,0.1H69h-4.7c-0.1,0-0.1-0.1-0.1-0.1c0-1.3-0.1-32.7-0.2-33.9v-0.1
				c-0.1-0.9-0.2-2.2-0.9-3.3c-0.3-0.5-1-0.8-1.8-0.8c-0.8,0-1.6,0.3-2,0.8c-0.8,0.9-0.9,2.1-1,3.2c-0.1,1.1,0,32.8,0,34.2
				c0,0,0,0.1,0,0.1s0,0-0.1,0h-9.6c-0.1,0-0.1-0.1-0.1-0.1c0-0.3-0.3-34.5-0.1-36.7C48.7,9.5,50,5,54.2,2.5c1.9-1.1,7-2.4,10.9,0.5
				c1.7,1.3,2.6,2.4,3.2,3.2l0.2,0.3c0.3,0.4,0.4,0.4,0.4,0.4c0.1,0,0.2,0,0.4-0.4l0.2-0.3c0.6-0.8,1.6-1.9,3.2-3.2
				c3.9-2.9,9-1.6,10.9-0.5C87.9,5,89.2,9.5,89.6,12.9z"/>
		</g>
	</g>
	<polygon id="XMLID_00000159456074974072412820000002793629727118901141_" class="st4" points="225.9,2.4 230.3,3.2 233.4,0 
		234.1,4.4 238.1,6.4 234,8.4 233.3,12.8 230.3,9.6 225.8,10.3 228,6.4 	"/>
	<g>
		<g>
			<path id="XMLID_00000175283753985414517840000018018593845807438260_" class="st4" d="M268.7,59c1.7,0,3,1.4,3,3
				c0,1.7-1.3,3.1-3,3.1c-1.7,0-3-1.3-3-3.1C265.7,60.3,267,59,268.7,59L268.7,59z M268.7,59.5c-1.3,0-2.4,1.1-2.4,2.6
				c0,1.4,1.1,2.6,2.4,2.6c1.4,0,2.4-1.1,2.4-2.6C271.1,60.6,270.1,59.5,268.7,59.5L268.7,59.5z M268.1,63.8h-0.5v-3.4
				c0.3,0,0.6-0.1,1-0.1c0.5,0,0.9,0.1,1.1,0.3c0.2,0.1,0.3,0.4,0.3,0.7c0,0.4-0.3,0.7-0.7,0.8v0c0.3,0.1,0.5,0.3,0.6,0.8
				c0.1,0.5,0.2,0.7,0.2,0.8h-0.6c-0.1-0.1-0.2-0.4-0.2-0.9c-0.1-0.4-0.3-0.6-0.7-0.6h-0.4V63.8z M268.1,61.9h0.4
				c0.4,0,0.8-0.2,0.8-0.6c0-0.3-0.2-0.6-0.8-0.6c-0.2,0-0.3,0-0.4,0V61.9z"/>
		</g>
	</g>
</g>
</svg>
