<?xml version="1.0" encoding="utf-8"?>
<!-- Generator: Adobe Illustrator 27.1.1, SVG Export Plug-In . SVG Version: 6.00 Build 0)  -->
<svg version="1.1" id="Layer_1" xmlns="http://www.w3.org/2000/svg" xmlns:xlink="http://www.w3.org/1999/xlink" x="0px" y="0px"
	 viewBox="0 0 315.3 21.8" style="enable-background:new 0 0 315.3 21.8;" xml:space="preserve">
<style type="text/css">
	.st0{fill:#FFFFFF;}
</style>
<g>
	<path class="st0" d="M16.7,5l-4.2,1.4c-0.6-1.7-1.8-2.5-3.6-2.5C7,3.9,6,4.5,6,5.8c0,0.5,0.2,0.9,0.5,1.3C6.9,7.4,7.7,7.7,9,8
		c2.2,0.4,3.7,0.9,4.7,1.3c1,0.4,1.8,1.2,2.5,2.1c0.7,1,1,2.1,1,3.3c0,1.9-0.7,3.6-2.2,5c-1.5,1.4-3.7,2.1-6.5,2.1
		c-2.2,0-4-0.5-5.5-1.5c-1.5-1-2.5-2.5-3-4.4l4.6-1c0.5,2,2,3,4.3,3c1.1,0,2-0.2,2.5-0.7c0.6-0.4,0.8-1,0.8-1.6
		c0-0.6-0.3-1.1-0.8-1.4c-0.5-0.3-1.5-0.7-2.9-1c-2.7-0.6-4.6-1.3-5.8-2.3S1.1,8.6,1.1,6.7c0-1.9,0.7-3.5,2.1-4.8S6.4,0,8.7,0
		C12.9,0,15.5,1.7,16.7,5z"/>
	<path class="st0" d="M46.5,0.3l-5.3,21.2h-4.9l-3.5-14l-3.4,14h-4.8L19.2,0.3h5.1l2.9,12.9c0,0.1,0.1,0.3,0.2,0.7
		c0,0.1,0.1,0.4,0.2,0.7L31,0.3h4.6l3.6,14.3c0.1-0.3,0.2-0.7,0.3-1.3l3-12.9H46.5z"/>
	<path class="st0" d="M54.7,0.3v21.2h-4.9V0.3H54.7z"/>
	<path class="st0" d="M64.9,13.6v7.9h-5V0.3h8.3c1.9,0,3.3,0.2,4.3,0.6c1,0.4,1.9,1.1,2.6,2.1c0.8,1,1.2,2.3,1.2,3.8
		c0,1-0.2,2.1-0.6,3.1c-0.4,1-1,1.8-1.8,2.3c-0.8,0.6-1.5,0.9-2.2,1.1c-0.7,0.2-1.8,0.3-3.3,0.3H64.9z M64.8,9.8H68
		c1.2,0,2.1-0.3,2.6-0.9c0.5-0.6,0.7-1.2,0.7-2c0-0.9-0.3-1.5-0.8-2C70,4.4,69.1,4.2,68,4.2h-3.2V9.8z"/>
	<path class="st0" d="M95.1,4.4H85.1v4.3H93v4h-7.9v4.6h10.1v4.2H80V0.3h15.1V4.4z"/>
	<path class="st0" d="M124.7,0.3v13.2c0,2.1-0.2,3.7-0.7,4.8c-0.5,1-1.4,1.9-2.7,2.6c-1.3,0.7-3,1-5,1c-2,0-3.7-0.3-4.9-0.9
		c-1.2-0.6-2.1-1.5-2.7-2.6s-0.9-2.7-0.9-4.9V0.3h5.4v13.2c0,1.1,0.1,2,0.3,2.5c0.2,0.5,0.6,1,1.1,1.3c0.6,0.3,1.3,0.5,2.1,0.5
		c0.9,0,1.7-0.2,2.3-0.5c0.6-0.3,1-0.7,1.2-1.2c0.2-0.5,0.3-1.4,0.3-2.6V0.3H124.7z"/>
	<path class="st0" d="M134.6,13.6v7.9h-5V0.3h8.3c1.9,0,3.3,0.2,4.3,0.6s1.9,1.1,2.6,2.1c0.8,1,1.2,2.3,1.2,3.8c0,1-0.2,2.1-0.6,3.1
		c-0.4,1-1,1.8-1.8,2.3c-0.8,0.6-1.5,0.9-2.2,1.1c-0.7,0.2-1.8,0.3-3.3,0.3H134.6z M134.4,9.8h3.2c1.2,0,2.1-0.3,2.6-0.9
		c0.5-0.6,0.7-1.2,0.7-2c0-0.9-0.3-1.5-0.8-2c-0.6-0.5-1.4-0.8-2.5-0.8h-3.2V9.8z"/>
	<path class="st0" d="M173.6,4.5h-9.9v4.7h7.8v4h-7.8v8.3h-5.1V0.3h15.1V4.5z"/>
	<path class="st0" d="M184.8,21.8c-2.9,0-5.1-1.1-6.6-3.2c-1.6-2.1-2.3-4.7-2.3-7.8c0-3.1,0.8-5.7,2.4-7.7C179.8,1,182,0,185,0
		c3,0,5.2,1.1,6.7,3.3c1.5,2.2,2.3,4.7,2.3,7.6c0,3.1-0.8,5.7-2.3,7.8C190,20.8,187.8,21.8,184.8,21.8z M184.9,4
		c-2.6,0-3.9,2.3-3.9,6.9c0,4.6,1.3,6.9,3.9,6.9c2.5,0,3.8-2.3,3.8-6.9C188.7,6.3,187.4,4,184.9,4z"/>
	<path class="st0" d="M203.1,13.1v8.4h-5V0.3h9.3c1.7,0,3.1,0.2,4.1,0.6c1,0.4,1.9,1.1,2.6,2.2c0.7,1.1,1,2.2,1,3.5
		c0,2.5-1.2,4.4-3.7,5.5l3.9,9.4h-5.5l-3.3-8.4H203.1z M203.1,4.1v5.4h3c1,0,1.7-0.1,2.2-0.2c0.4-0.1,0.9-0.4,1.2-0.9
		c0.4-0.5,0.5-1,0.5-1.7c0-0.6-0.2-1.1-0.5-1.6s-0.7-0.8-1.1-0.9c-0.4-0.1-1.2-0.2-2.3-0.2H203.1z"/>
	<path class="st0" d="M238.2,21.5L233,4.2v17.3h-4.2V0.3h7.7l3.7,12.7l3.9-12.7h7.7v21.2h-5V4.2l-5.3,17.3H238.2z"/>
	<path class="st0" d="M265,21.8c-2.9,0-5.1-1.1-6.6-3.2c-1.6-2.1-2.3-4.7-2.3-7.8c0-3.1,0.8-5.7,2.4-7.7C260,1,262.3,0,265.2,0
		c3,0,5.2,1.1,6.7,3.3c1.5,2.2,2.3,4.7,2.3,7.6c0,3.1-0.8,5.7-2.3,7.8C270.2,20.8,268,21.8,265,21.8z M265.2,4
		c-2.6,0-3.9,2.3-3.9,6.9c0,4.6,1.3,6.9,3.9,6.9c2.5,0,3.8-2.3,3.8-6.9C268.9,6.3,267.7,4,265.2,4z"/>
	<path class="st0" d="M283.3,13.1v8.4h-5V0.3h9.3c1.7,0,3.1,0.2,4.1,0.6c1,0.4,1.9,1.1,2.6,2.2c0.7,1.1,1,2.2,1,3.5
		c0,2.5-1.2,4.4-3.7,5.5l3.9,9.4h-5.5l-3.3-8.4H283.3z M283.3,4.1v5.4h3c1,0,1.7-0.1,2.2-0.2s0.9-0.4,1.2-0.9c0.4-0.5,0.5-1,0.5-1.7
		c0-0.6-0.2-1.1-0.5-1.6s-0.7-0.8-1.1-0.9c-0.4-0.1-1.2-0.2-2.3-0.2H283.3z"/>
	<path class="st0" d="M315.3,4.4h-10.1v4.3h7.9v4h-7.9v4.6h10.1v4.2h-15.1V0.3h15.1V4.4z"/>
</g>
</svg>
