<?xml version="1.0" encoding="utf-8"?>
<!-- Generator: Adobe Illustrator 27.1.1, SVG Export Plug-In . SVG Version: 6.00 Build 0)  -->
<svg version="1.1" id="Layer_1" xmlns="http://www.w3.org/2000/svg" xmlns:xlink="http://www.w3.org/1999/xlink" x="0px" y="0px"
	 viewBox="0 0 139.3 91.3" style="enable-background:new 0 0 139.3 91.3;" xml:space="preserve">
<style type="text/css">
	.st0{fill:none;stroke:#9D7D2D;stroke-miterlimit:10;}
	.st1{fill:#F3DA42;}
	.st2{fill:none;stroke:#9D7D2D;stroke-width:0.75;stroke-linecap:round;stroke-linejoin:round;stroke-miterlimit:10;}
	.st3{fill:#9D7D2D;}
	.st4{fill:#FFFFFF;}
	.st5{fill:#A17D23;}
	.st6{fill:#FFFDF5;}
	.st7{fill:#191818;}
	.st8{clip-path:url(#SVGID_00000160906661058959256790000010016983294942018729_);}
	.st9{fill:#010101;}
	.st10{fill:#B9E5DD;}
	.st11{fill:#235B4E;}
	.st12{fill:#AA97C8;}
	.st13{fill:#AE95DA;}
	.st14{fill:#5F4776;}
	.st15{clip-path:url(#SVGID_00000114795077543777386920000016210338677106046592_);}
	.st16{fill:#AE95DA;stroke:#5F4776;stroke-width:4;stroke-linecap:round;stroke-linejoin:round;}
	.st17{fill:#FFFCF3;}
	.st18{clip-path:url(#SVGID_00000027581249484193025730000017705535312334376076_);}
	.st19{fill:#5F4777;}
	.st20{fill:#FFFDF4;}
	.st21{fill:#A24596;}
	.st22{clip-path:url(#SVGID_00000012459663656948067300000016890974221278966445_);}
	.st23{clip-path:url(#SVGID_00000049906718648224584360000001837240493587073940_);}
	.st24{fill:#F5D93F;}
	.st25{fill:#F5D93F;stroke:#A17D23;stroke-width:0.5;stroke-linecap:round;stroke-linejoin:round;stroke-miterlimit:10;}
	.st26{fill:#F3DA42;stroke:#9D7D2D;stroke-width:0.75;stroke-linecap:round;stroke-linejoin:round;}
	.st27{fill:#9F2241;}
	.st28{fill:#FFB4AB;}
	.st29{clip-path:url(#SVGID_00000067923317034605341200000001793181323761672122_);}
	.st30{fill:none;stroke:#9F2241;stroke-width:0.75;stroke-linecap:round;stroke-linejoin:round;stroke-miterlimit:10;}
	.st31{fill:#E9E8D6;}
	.st32{fill:#2D0F13;}
	.st33{fill:#F7B1AA;}
</style>
<g>
	<g id="XMLID_00000063620038396005249460000000503019669308823473_">
		<g>
			<path class="st4" d="M136.5,62.7c0.9,0.3,3.3,0.7,2.2,2.5c-0.9,1.5-3.4-0.4-4-1.4c-0.6-0.8-0.7-3.1-0.2-3.9
				c0.5-0.9,1.6-0.7,2.2,0C137.3,61,137,61.8,136.5,62.7z"/>
			<path class="st4" d="M134.4,63.9c0.7,0.9,1.9,3.8,0.2,4.2c-2,0.5-1.7-1.9-1.7-2.8c-1,0.2-2,0.2-2.7-0.7c-0.6-0.7-0.5-1.9,0.6-2.1
				C132,62.2,133.7,63,134.4,63.9z"/>
			<path class="st4" d="M127.4,77.3c1-0.3,1.7,0.5,1.6,1.4c-0.1,1.2-0.9,1.6-1.9,2c0.5,0.8,2,2.7,0,3.3c-1.7,0.5-2.3-2.5-2.1-3.7
				C125.1,79.4,126.5,77.6,127.4,77.3z"/>
			<path class="st4" d="M123,76.8c1.1,0.6,1.9,2.4,1.8,3.5c-0.1,1.1-1,4.1-2.6,3.3c-1.9-0.9-0.1-2.6,0.5-3.3
				c-0.9-0.5-1.6-1.1-1.6-2.2C121.3,77.1,122.1,76.3,123,76.8z"/>
		</g>
		<g>
			<path class="st2" d="M134.6,68.1c-2,0.5-1.7-1.9-1.7-2.8c-1,0.2-2,0.2-2.7-0.7c-0.6-0.7-0.5-1.9,0.6-2.1c1.2-0.3,3,0.5,3.6,1.5
				C135.1,64.8,136.3,67.6,134.6,68.1z"/>
			<path class="st2" d="M138.7,65.3c1.1-1.8-1.3-2.2-2.2-2.5c0.5-0.9,0.8-1.8,0.2-2.7c-0.5-0.8-1.6-0.9-2.2,0
				c-0.5,0.8-0.4,3.1,0.2,3.9C135.3,64.8,137.7,66.7,138.7,65.3z"/>
			<path class="st2" d="M122.3,83.6c-1.9-0.9-0.1-2.6,0.5-3.3c-0.9-0.5-1.6-1.1-1.6-2.2c0.1-0.9,0.9-1.8,1.8-1.2
				c1.1,0.6,1.9,2.4,1.8,3.5C124.8,81.4,123.8,84.3,122.3,83.6z"/>
			<path class="st2" d="M127.2,84.1c2-0.6,0.4-2.5,0-3.3c1-0.4,1.8-0.8,1.9-2c0.1-0.9-0.7-1.7-1.6-1.4c-0.9,0.3-2.3,2.1-2.4,3.1
				C124.9,81.5,125.5,84.6,127.2,84.1z"/>
		</g>
	</g>
	<g>
		<path class="st5" d="M17.7,44.3v-9.2h1.6v7.8h2.5v1.4H17.7z"/>
		<path class="st5" d="M23.1,44.3v-9.2h1.6v9.2H23.1z"/>
		<path class="st5" d="M33,35.1v9.2h-1.4v-7.2h0l-1.4,7.2h-0.8l-1.4-7.2h0v7.2h-1.4v-9.2h2.1l1.1,5.4h0l1.1-5.4H33z"/>
		<path class="st5" d="M34.8,44.3v-9.2h1.6v9.2H34.8z"/>
		<path class="st5" d="M39.1,36.4h-1.5v-1.4h4.6v1.4h-1.5v7.8h-1.6V36.4z"/>
		<path class="st5" d="M43.3,44.3v-9.2h4.2v1.4h-2.7v2.4h2v1.4h-2v2.7h2.8v1.4H43.3z"/>
		<path class="st5" d="M49.1,35.1h2.3c1.6,0,2.5,0.9,2.5,2.8v3.6c0,1.9-0.9,2.8-2.5,2.8h-2.3V35.1z M50.7,43h0.5
			c0.8,0,1.1-0.3,1.1-1.3v-4c0-1-0.3-1.3-1.1-1.3h-0.5V43z"/>
		<path class="st5" d="M58.6,44.3v-9.2h4.2v1.4h-2.7v2.4h2v1.4h-2v2.7H63v1.4H58.6z"/>
		<path class="st5" d="M64.4,35.1h2.3c1.6,0,2.5,0.9,2.5,2.8v3.6c0,1.9-0.9,2.8-2.5,2.8h-2.3V35.1z M66,43h0.5
			c0.8,0,1.1-0.3,1.1-1.3v-4c0-1-0.3-1.3-1.1-1.3H66V43z"/>
		<path class="st5" d="M71.1,44.3v-9.2h1.6v9.2H71.1z"/>
		<path class="st5" d="M75.5,36.4H74v-1.4h4.6v1.4h-1.5v7.8h-1.6V36.4z"/>
		<path class="st5" d="M79.9,44.3v-9.2h1.6v9.2H79.9z"/>
		<path class="st5" d="M83.4,37.3c0-1.3,0.8-2.4,2.4-2.4c1.7,0,2.4,1.1,2.4,2.4V42c0,1.3-0.8,2.4-2.4,2.4c-1.7,0-2.4-1.1-2.4-2.4
			V37.3z M85,42c0,0.7,0.2,1,0.8,1c0.6,0,0.8-0.3,0.8-1v-4.7c0-0.7-0.2-1-0.8-1c-0.6,0-0.8,0.3-0.8,1V42z"/>
		<path class="st5" d="M89.9,44.3v-9.2h1.5l1.9,5.3h0v-5.3h1.4v9.2h-1.4l-2-5.8h0v5.8H89.9z"/>
		<path class="st5" d="M27,51.4c-0.4-1-1.2-1.8-3.9-1.8c-1.5,0-2.9,0.4-2.9,1.4c0,0.5,0.3,1,2.5,1.2l2.6,0.4
			c2.5,0.4,3.9,1.3,3.9,3.2c0,2.6-2.5,3.6-5.4,3.6c-4.7,0-5.9-2.3-6.2-3.2l2.1-0.7c0.4,0.8,1.2,2,4.1,2c1.8,0,3.2-0.6,3.2-1.5
			c0-0.7-0.8-1.2-2.4-1.4L22,54.2c-2.6-0.4-4-1.5-4-3.1c0-3.3,4.3-3.3,5.2-3.3c4.8,0,5.6,2.2,5.9,3L27,51.4z"/>
		<path class="st5" d="M32.6,48h6.2c1.9,0,4.9,0,4.9,3.4c0,3.4-3.1,3.4-4.9,3.4h-4v4.3h-2.2V48z M39.2,52.9c1.2,0,2.3-0.1,2.3-1.5
			c0-1.4-1.1-1.5-2.3-1.5h-4.5v3.1H39.2z"/>
		<path class="st5" d="M46.7,48h6.6c2.6,0,4.5,0.6,4.5,3.3c0,2-1.5,3.2-3.1,3.3l3.4,4.5h-2.7l-3.2-4.4h-3.4v4.4h-2.2V48z M53.1,52.9
			c1.8,0,2.7-0.3,2.7-1.6c0-1.3-0.9-1.6-2.7-1.6h-4.2v3.1H53.1z"/>
		<path class="st5" d="M61.9,48h2.2v11.1h-2.2V48z"/>
		<path class="st5" d="M68.3,48h2.3l7.4,8v-8h2.1v11.1h-2l-7.7-8.3v8.3h-2.1V48z"/>
		<path class="st5" d="M95.6,53.4v5.8h-1.3L93.9,58c-0.8,0.5-2,1.3-4.1,1.3c-2.8,0-6.3-1.4-6.3-5.8c0-3,1.8-5.8,6.2-5.8
			c2.5,0,5.3,0.9,5.9,3.7h-2.2c-0.3-0.6-0.9-1.9-3.4-1.9c-3.5,0-4.3,2.3-4.3,3.9c0,2.6,1.8,4,4.1,4c2.1,0,3.3-0.7,3.8-2.3h-3.9v-1.7
			H95.6z"/>
		<path class="st5" d="M28,66.7l-2.7,0.9c-0.4-1.1-1.2-1.6-2.3-1.6c-1.3,0-1.9,0.4-1.9,1.2c0,0.3,0.1,0.6,0.4,0.8
			c0.2,0.2,0.8,0.4,1.6,0.6c1.4,0.3,2.4,0.6,3.1,0.9s1.2,0.8,1.6,1.4s0.7,1.4,0.7,2.2c0,1.2-0.5,2.3-1.4,3.2c-1,0.9-2.4,1.4-4.3,1.4
			c-1.4,0-2.6-0.3-3.6-1c-1-0.6-1.6-1.6-2-2.9l3-0.7c0.3,1.3,1.3,1.9,2.8,1.9c0.7,0,1.3-0.1,1.7-0.4c0.4-0.3,0.5-0.6,0.5-1
			c0-0.4-0.2-0.7-0.5-0.9s-1-0.4-1.9-0.6c-1.8-0.4-3-0.9-3.8-1.5c-0.7-0.6-1.1-1.6-1.1-2.8c0-1.2,0.4-2.3,1.3-3.1
			c0.9-0.8,2.1-1.3,3.6-1.3C25.5,63.4,27.2,64.5,28,66.7z"/>
		<path class="st5" d="M42.6,68.8L39.2,69c0-1.9-0.8-2.9-2.3-2.9c-1.7,0-2.5,1.5-2.5,4.5c0,1.7,0.2,2.9,0.7,3.5S36.2,75,37,75
			c1.3,0,2.2-0.9,2.4-2.6l3.1,0.2c-0.2,1.6-0.8,2.9-1.8,3.8c-1,0.9-2.3,1.3-3.8,1.3c-1.8,0-3.3-0.6-4.4-1.9c-1.1-1.3-1.7-3-1.7-5.2
			c0-2.1,0.6-3.8,1.7-5.1c1.1-1.3,2.6-2,4.5-2C40.3,63.4,42.2,65.2,42.6,68.8z"/>
		<path class="st5" d="M55.4,66.3h-6.6v2.8h5.2v2.6h-5.2v3h6.6v2.7h-9.8V63.6h9.8V66.3z"/>
		<path class="st5" d="M68.9,63.6v13.8h-2.8l-5.4-9.3c0,0.2,0,0.4,0,0.5c0,0.2,0,0.4,0,0.6v8.3h-2.5V63.6h3.5l4.7,8.1
			c0-0.4-0.1-0.7-0.1-0.9v-7.2H68.9z"/>
		<path class="st5" d="M81.5,63.6v2.7h-3.4v11.1h-3.3V66.4h-3.4v-2.7H81.5z"/>
		<path class="st5" d="M93.4,66.7l-2.7,0.9c-0.4-1.1-1.2-1.6-2.3-1.6c-1.3,0-1.9,0.4-1.9,1.2c0,0.3,0.1,0.6,0.4,0.8
			c0.2,0.2,0.8,0.4,1.6,0.6c1.4,0.3,2.4,0.6,3.1,0.9s1.2,0.8,1.6,1.4s0.7,1.4,0.7,2.2c0,1.2-0.5,2.3-1.4,3.2c-1,0.9-2.4,1.4-4.3,1.4
			c-1.4,0-2.6-0.3-3.6-1c-1-0.6-1.6-1.6-2-2.9l3-0.7c0.3,1.3,1.3,1.9,2.8,1.9c0.7,0,1.3-0.1,1.7-0.4c0.4-0.3,0.5-0.6,0.5-1
			c0-0.4-0.2-0.7-0.5-0.9s-1-0.4-1.9-0.6c-1.8-0.4-3-0.9-3.8-1.5c-0.7-0.6-1.1-1.6-1.1-2.8c0-1.2,0.4-2.3,1.3-3.1
			c0.9-0.8,2.1-1.3,3.6-1.3C90.9,63.4,92.6,64.5,93.4,66.7z"/>
		<path class="st5" d="M24.7,88.7c0,1.1-0.1,1.4-0.2,1.7c-0.3,0.6-0.7,0.9-1.5,0.9c-0.8,0-1.2-0.3-1.5-1c-0.7,0.8-1.2,1-2.2,1
			c-1.2,0-2-0.7-2-1.7c0-0.7,0.4-1.3,1-1.6c0.5-0.2,0.9-0.4,1.9-0.6c0.9-0.2,1.2-0.5,1.2-1.1c0-0.7-0.5-1.1-1.4-1.1
			c-0.5,0-0.9,0.1-1.3,0.4c0.6,0,0.9,0.3,0.9,0.8c0,0.5-0.4,0.9-0.9,0.9c-0.6,0-1.1-0.4-1.1-1.1c0-1,1.1-1.7,2.6-1.7
			c0.9,0,1.7,0.2,2.1,0.5c0.5,0.4,0.7,0.8,0.7,1.9v2.8c0,0.3,0.1,0.5,0.3,0.5c0.3,0,0.4-0.3,0.4-1.4v-0.2H24.7z M21.6,87.8
			c-0.3,0.2-0.5,0.3-0.7,0.3l-0.7,0.3c-0.6,0.2-0.9,0.6-0.9,1.1c0,0.5,0.3,0.8,0.8,0.8c0.4,0,0.8-0.2,1-0.4c0.3-0.3,0.4-0.7,0.4-1.3
			V87.8z"/>
		<path class="st5" d="M30.4,91.1h-4.3v-0.9h0.4c0.7,0,0.8-0.1,0.8-0.8v-3c0-0.7-0.1-0.8-0.8-0.8h-0.4v-0.9h2.9v1
			c0.5-0.8,1-1.1,1.7-1.1c0.9,0,1.6,0.6,1.6,1.5c0,0.7-0.5,1.1-1.1,1.1c-0.6,0-0.9-0.3-0.9-0.8c0-0.5,0.2-0.7,0.8-0.9
			c-0.2-0.1-0.5-0.1-0.6-0.1c-0.4,0-0.8,0.3-1.1,0.7c-0.3,0.4-0.4,1-0.4,1.7v1.7c0,0.7,0.1,0.8,0.8,0.8h0.7V91.1z"/>
		<path class="st5" d="M40.2,88.8c-0.2,1-0.4,1.4-1,1.9c-0.5,0.4-1.2,0.7-2.1,0.7c-2,0-3.3-1.4-3.3-3.4c0-2.1,1.4-3.5,3.4-3.5
			c1,0,1.8,0.3,2.3,1c0.5,0.6,0.7,1.2,0.7,2.6h-4.6c0.1,0.9,0.2,1.2,0.4,1.6c0.3,0.4,0.7,0.6,1.3,0.6c0.5,0,0.9-0.1,1.1-0.3
			c0.2-0.2,0.4-0.5,0.5-1.1H40.2z M38.5,87.1c-0.1-1.3-0.5-1.7-1.3-1.7c-0.8,0-1.2,0.5-1.5,1.7H38.5z"/>
		<path class="st5" d="M48.7,81.2h1.9v3.9h6.7v-3.9h1.9v9.9h-1.9v-4.3h-6.7v4.3h-1.9V81.2z"/>
		<path class="st5" d="M62.6,81.2h8.9v1.7h-7v2.3h6v1.7h-6v2.6h7.1v1.7h-9.1V81.2z"/>
		<path class="st5" d="M74.1,81.2h6c2.3,0,4,0.5,4,3c0,1.8-1.3,2.8-2.8,2.9l3,4H82l-2.9-3.9h-3.1v3.9h-1.9V81.2z M79.8,85.6
			c1.6,0,2.4-0.2,2.4-1.4c0-1.2-0.8-1.4-2.4-1.4h-3.7v2.8H79.8z"/>
		<path class="st5" d="M87.2,81.2h8.9v1.7h-7v2.3h6v1.7h-6v2.6h7.1v1.7h-9.1V81.2z"/>
	</g>
	<g>
		<g>
			<path id="XMLID_00000172407298793862500250000015614707698521087365_" class="st4" d="M23.7,3.3l0.1-0.1C24,2.9,24.4,2.5,25,2.1
				c1.4-1.1,3.2-0.6,3.9-0.2c1.5,0.9,2,2.5,2.1,3.7c0.1,0.8,0,13,0,13.1c0,0,0,0,0,0h-3.4c0,0,0,0,0,0c0,0,0,0,0,0
				c0-0.5,0-11.8,0-12.2c0-0.4-0.1-0.8-0.4-1.1c-0.1-0.2-0.4-0.3-0.7-0.3c-0.3,0-0.5,0.1-0.6,0.3c-0.3,0.4-0.3,0.9-0.3,1.2l0,0
				c0,0.4-0.1,11.7-0.1,12.1c0,0,0,0,0,0h-1.7l0,0h-1.7c0,0,0,0,0,0c0-0.5,0-11.7-0.1-12.1l0,0c0-0.3-0.1-0.8-0.3-1.2
				c-0.1-0.2-0.4-0.3-0.6-0.3c-0.3,0-0.6,0.1-0.7,0.3c-0.3,0.3-0.3,0.7-0.4,1.1c0,0.4,0,11.7,0,12.2c0,0,0,0,0,0c0,0,0,0,0,0h-3.4
				c0,0,0,0,0,0c0-0.1-0.1-12.4,0-13.1c0.1-1.2,0.6-2.8,2.1-3.7c0.7-0.4,2.5-0.9,3.9,0.2c0.6,0.5,0.9,0.9,1.2,1.1l0.1,0.1
				c0.1,0.1,0.1,0.1,0.2,0.1C23.6,3.5,23.6,3.5,23.7,3.3z"/>
			<path id="XMLID_00000125600708579392787630000000009114775001691560_" class="st4" d="M60.5,18.7c-1.1-0.1-2.8-1.3-2.9-3.1
				c0-0.7-0.1-10.2,0-11.4c0.1-1.2,1.1-2.2,2-2.4c0.8-0.2,5.4-0.2,5.5-0.2l0,0c0,0,0,0,0,0v2.9c0,0,0,0,0,0c0,0-2.9,0-3.4,0
				c-0.1,0-0.3,0-0.3,0.1c-0.1,0.1-0.1,0.4-0.1,0.5l0,0v2.7c0,0.3,0,0.5,0.2,0.6c0.1,0.1,0.2,0.1,0.3,0.1c0.5,0,3.4,0,3.4,0
				c0,0,0,0,0,0v2.9c0,0,0,0,0,0h-3.4c-0.2,0-0.3,0-0.4,0.1c-0.1,0.1-0.1,0.3-0.1,0.4l0,0V15l0,0c0,0.1,0,0.3,0.1,0.5
				c0.1,0.1,0.2,0.1,0.3,0.1h3.4c0,0,0,0,0,0v3c0,0,0,0,0,0C65.1,18.7,61.6,18.8,60.5,18.7z"/>
			<path id="XMLID_00000173140702461560096520000010027040490634788228_" class="st4" d="M37.1,18.7c-1.1-0.1-2.8-1.3-2.9-3.1
				c0-0.7-0.1-10.2,0-11.4c0.1-1.2,1.1-2.2,2-2.4c0.8-0.2,5.4-0.2,5.5-0.2l0,0c0,0,0,0,0,0v2.9c0,0,0,0,0,0c0,0-2.9,0-3.4,0
				c-0.1,0-0.3,0-0.3,0.1c-0.1,0.1-0.1,0.4-0.1,0.5l0,0v2.7c0,0.3,0,0.5,0.2,0.6c0.1,0.1,0.2,0.1,0.3,0.1c0.5,0,3.4,0,3.4,0
				c0,0,0,0,0,0v2.9c0,0,0,0,0,0h-3.4c-0.2,0-0.3,0-0.4,0.1c-0.1,0.1-0.1,0.3-0.1,0.4l0,0V15l0,0c0,0.1,0,0.3,0.1,0.5
				c0.1,0.1,0.2,0.1,0.3,0.1h3.4c0,0,0,0,0,0v3c0,0,0,0,0,0C41.7,18.7,38.2,18.8,37.1,18.7z"/>
			<path id="XMLID_00000173151899187953992000000006867178389389935250_" class="st4" d="M50.2,10.7c0.5-0.3,0.6-0.7,0.6-1
				c0-0.5,0.1-7.5,0.1-7.8c0,0,0,0,0,0h3.4c0,0,0,0,0,0c0,0,0,0,0,0c0,0.1,0,6.7-0.1,7.4c-0.3,3-2.2,4-2.4,4.1
				c-0.2,0.1-0.2,0.2-0.2,0.3l0,0.1c0,0.2,0,4.3,0,5.1c0,0,0,0,0,0c0,0,0,0,0,0h-3.6c0,0,0,0,0,0c0,0,0,0,0,0c0-0.8,0.1-4.9,0-5.1
				l0-0.1c0-0.1-0.1-0.3-0.2-0.3c-0.2-0.1-2.2-1.2-2.4-4.1c-0.1-0.7-0.1-7.3-0.1-7.4c0,0,0,0,0,0c0,0,0,0,0,0h3.4c0,0,0,0,0,0
				c0,0.3,0.1,7.3,0.1,7.8c0,0.3,0.2,0.8,0.6,1l0,0C49.7,10.8,50,10.8,50.2,10.7C50.2,10.7,50.2,10.7,50.2,10.7z"/>
			<path id="XMLID_00000126298168723187838300000006209556772566554302_" class="st4" d="M69.2,18.7v-17c0,0,0,0,0,0
				c0,0,4.2-0.1,5.2,0c1,0.1,2.1,0.4,3.2,1.6c1.5,1.7,0.9,5-0.6,6.3c-0.1,0.1-0.2,0.2-0.2,0.2c0,0.1,0.1,0.1,0.2,0.2l0.2,0.2
				c0.8,0.6,1.3,2,1.3,3c0,0.6,0,5.5,0,5.5c0,0,0,0,0,0h-3.5c0,0,0,0,0,0c0,0-0.1-4.5-0.1-5.9c0-0.6-0.4-1.4-2-1.3l0,0
				c-0.1,0-0.2,0.1-0.2,0.1c-0.1,0.1-0.1,0.2-0.1,0.2l0,0.2v6.6c0,0,0,0,0,0L69.2,18.7C69.2,18.8,69.2,18.7,69.2,18.7z M72.6,4.6
				L72.6,4.6l0,3.9c0,0.1,0,0.2,0.1,0.3c0.1,0.1,0.2,0.1,0.3,0.1h0c1.1,0,1.8-1.1,1.8-2.2c0.1-1.1-0.5-2.2-1.7-2.3
				C72.8,4.3,72.6,4.3,72.6,4.6z"/>
			<path id="XMLID_00000046336299258429950290000003310532622503822484_" class="st4" d="M85.8,18.8C85.8,18.8,85.8,18.8,85.8,18.8
				l0-3.1c0,0,0,0,0,0h3.8c0.1,0,0.2-0.1,0.2-0.2v-3.6c0-0.1-0.1-0.2-0.2-0.2c0,0-1.1,0-1.6-0.1c-0.7-0.1-1.7-0.5-2-1.8
				c-0.4-1.5-0.4-5.2,0.4-6.5c0.6-1.1,1.8-1.4,2.2-1.4c0.8-0.1,4.6-0.2,4.6-0.2c0,0,0,0,0,0v3c0,0,0,0,0,0l-3.6,0.1
				c-0.1,0-0.2,0.1-0.2,0.2v3.3c0,0.1,0,0.1,0.1,0.1c0,0,0.1,0.1,0.1,0.1c0,0,1.4,0,2,0.1c0.9,0.2,1.6,0.8,1.7,1.6
				c0.2,1,0.2,4.9,0,5.9c-0.2,0.8-0.7,2-2.3,2.4C89.7,19,85.8,18.8,85.8,18.8L85.8,18.8L85.8,18.8z"/>
		</g>
		<g>
			<g>
				<path id="XMLID_00000031885617964580891970000017241271391131527356_" class="st5" d="M16.9,24.3c0,2,1.3,3.2,3.4,3.2
					c2.6,0,3.2-1.4,3.3-2.3l0-0.2h-1.4l0,0.1c-0.1,0.4-0.6,1.1-1.8,1.1c-1,0-2-0.5-2-1.8c0-1.2,0.7-1.9,2.1-1.9
					c1.4,0,1.7,0.9,1.7,0.9l0,0.1h1.4l-0.1-0.2c-0.5-1.7-2-2.1-3.2-2.1C18.2,21.2,16.9,22.4,16.9,24.3z"/>
				<path id="XMLID_00000168816085888275595150000007505027225296344199_" class="st5" d="M28.5,21.4h-1.3v6h5.6v-1.3
					c0,0-3.8,0-4.1,0c0-0.3,0-4.7,0-4.7H28.5z"/>
				<path id="XMLID_00000023266831358371356200000011331178399790659982_" class="st5" d="M41.3,21.4H36v6h5.5v-1.3c0,0-3.8,0-4.1,0
					c0-0.2,0-1,0-1.2c0.3,0,3.5,0,3.5,0v-1.3c0,0-3.2,0-3.5,0c0-0.2,0-0.8,0-1c0.3,0,4,0,4,0v-1.3H41.3z"/>
				<path id="XMLID_00000015344703266028414400000015096652024301540508_" class="st5" d="M49.2,21.4h-1.4l-3,6h1.5
					c0,0,0.5-1.2,0.6-1.3c0.2,0,2.9,0,3.1,0c0.1,0.2,0.6,1.3,0.6,1.3h1.5l-2.9-6H49.2z M48.5,22.8c0.2,0.4,0.8,1.7,0.9,2
					c-0.4,0-1.5,0-1.9,0C47.7,24.5,48.3,23.2,48.5,22.8z"/>
				<path id="XMLID_00000093168068685517964230000014256013402093357991_" class="st5" d="M61.7,21.4h-1.2c0,0,0,3.2,0,3.9
					c-0.5-0.5-3.6-3.9-3.6-3.9h-1.4v6h1.4c0,0,0-3.4,0-4c0.5,0.5,3.7,4,3.7,4h1.3v-6H61.7z"/>
				<path id="XMLID_00000018206709337141459480000017385751795698353845_" class="st5" d="M69.2,21.4H69v6h3c2.1,0,3.4-1.1,3.4-3.1
					c0-1.9-1.2-3-3.4-3H69.2z M71.4,22.6c1.8,0,2.5,0.5,2.5,1.7c0,1.1-0.4,1.8-2.5,1.8c0,0-0.7,0-1,0c0-0.3,0-3.2,0-3.5
					C70.7,22.6,71.4,22.6,71.4,22.6z"/>
				<path id="XMLID_00000105416934755611730120000011242454233680225416_" class="st5" d="M82.5,21.4h-1.4l-3,6h1.5
					c0,0,0.5-1.2,0.6-1.3c0.2,0,2.9,0,3.1,0c0.1,0.2,0.6,1.3,0.6,1.3h1.5l-2.9-6H82.5z M81.9,22.8c0.2,0.4,0.8,1.7,0.9,2
					c-0.4,0-1.5,0-1.9,0C81.1,24.5,81.7,23.2,81.9,22.8z"/>
				<path id="XMLID_00000060020809063289504930000012203802389860145823_" class="st5" d="M94.1,21.4h-1.5c0,0-1.7,2.1-1.9,2.3
					c-0.2-0.3-1.9-2.3-1.9-2.3h-1.8c0,0,2.9,3.6,3,3.6c0,0.1,0,2.4,0,2.4h1.4c0,0,0-2.3,0-2.4c0.1-0.1,3-3.6,3-3.6H94.1z"/>
			</g>
		</g>
		<g>
			<path id="XMLID_00000095306976686554514640000000179418253712910510_" class="st5" d="M3.1,9.3L3.1,9.3L2.3,6.7H0v0.6h0.4
				c0.2,0,0.3,0.1,0.3,0.3v2.6c0,0.2-0.1,0.3-0.3,0.3H0v0.6h1.9v-0.6H1.6c-0.2,0-0.3-0.1-0.3-0.3V7.3h0l1,3.6h0.9l1-3.5h0v2.7
				c0,0.2-0.1,0.3-0.3,0.3H3.8v0.6h2.3v-0.6H5.8c-0.2,0-0.3-0.1-0.3-0.3V7.5c0-0.2,0.1-0.3,0.3-0.3h0.4V6.7H3.8L3.1,9.3z"/>
			<path id="XMLID_00000143607867614974427930000006393448431332477618_" class="st5" d="M8.7,7.8C8.3,7.8,8.1,8.1,8,8.4h0V7.9H6.4
				v0.5h0.3c0.2,0,0.2,0.1,0.2,0.3v1.4c0,0.2,0,0.3-0.2,0.3H6.4v0.5h2.1v-0.5H8.2c-0.2,0-0.2-0.1-0.2-0.3V9c0-0.3,0.2-0.7,0.6-0.7
				c0.1,0,0.1,0,0.2,0.1c-0.2,0-0.3,0.2-0.3,0.4c0,0.3,0.2,0.4,0.5,0.4c0.3,0,0.5-0.3,0.5-0.6C9.5,8.1,9.1,7.8,8.7,7.8z"/>
			<path id="XMLID_00000048476169599742151370000011886143144334593215_" class="st5" d="M10.9,8.6c0-0.2,0.3-0.3,0.5-0.3
				c0.2,0,0.4,0,0.5,0.1c0.1,0.1,0.3,0.2,0.3,0.4h0.5v-1h-0.4l-0.1,0.2c-0.3-0.2-0.7-0.3-1-0.3c-0.6,0-1.4,0.2-1.4,1
				c0,1.2,2,0.8,2,1.4c0,0.3-0.4,0.3-0.5,0.3c-0.4,0-0.8-0.3-0.9-0.7H9.9V11h0.5l0.1-0.2c0.3,0.2,0.7,0.3,1.1,0.3
				c0.7,0,1.4-0.3,1.4-1C12.9,8.7,10.9,9.2,10.9,8.6z"/>
			<path id="XMLID_00000168818273279390078970000005290392120087625601_" class="st5" d="M14.2,10c-0.3,0-0.5,0.2-0.5,0.5
				c0,0.3,0.2,0.5,0.5,0.5s0.5-0.2,0.5-0.5C14.7,10.2,14.5,10,14.2,10z"/>
		</g>
		<g id="XMLID_00000163073990892065441260000002140239114139446917_">
			<g>
				<path class="st5" d="M94.4,9.3c0.2,1,0.2,4.9,0,5.9c-0.2,0.8-0.7,2-2.3,2.4c-1.3,0.3-5.1,0.1-5.2,0.1c0,0,0,0,0,0v-3.1
					c0,0,0,0,0,0h3.8c0.1,0,0.2-0.1,0.2-0.2v-3.6c0-0.1-0.1-0.2-0.2-0.2c0,0-1.1,0-1.6-0.1c-0.7-0.1-1.7-0.5-2-1.8
					c-0.4-1.5-0.4-5.2,0.4-6.5c0.6-1.1,1.8-1.4,2.2-1.4c0.8-0.2,4.6-0.2,4.6-0.2c0,0,0,0,0,0v3c0,0,0,0,0,0l-3.6,0.1
					c-0.1,0-0.2,0.1-0.2,0.2v3.3c0,0.1,0,0.1,0.1,0.1c0,0,0.1,0.1,0.1,0.1c0,0,1.4,0,2,0.1C93.6,7.9,94.2,8.5,94.4,9.3z"/>
				<path class="st5" d="M79.7,12.2c0,0.6,0,5.5,0,5.5c0,0,0,0,0,0h-3.5c0,0,0,0,0,0c0,0-0.1-4.5-0.1-5.9c0-0.6-0.4-1.4-2-1.3h0
					c-0.1,0-0.2,0.1-0.2,0.1c-0.1,0.1-0.1,0.2-0.1,0.2l0,0.2v6.6c0,0,0,0,0,0h-3.4c0,0,0,0,0,0v-17c0,0,0,0,0,0c0,0,4.2-0.1,5.2,0
					c1,0.1,2.1,0.4,3.2,1.6c1.5,1.7,0.9,5-0.6,6.3c-0.1,0.1-0.2,0.2-0.2,0.3C77.9,9,78,9,78.1,9.1l0.2,0.2
					C79.2,9.8,79.6,11.2,79.7,12.2z M76,5.6c0.1-1.1-0.5-2.2-1.7-2.3c-0.4,0-0.5,0-0.6,0.3v0v3.9c0,0.1,0,0.2,0.1,0.3
					c0.1,0.1,0.2,0.1,0.3,0.1h0C75.3,7.8,75.9,6.7,76,5.6z"/>
				<path class="st5" d="M66.3,14.7v3c0,0,0,0,0,0c0,0-3.5,0.1-4.6,0c-1.1-0.1-2.8-1.3-2.9-3.1c0-0.7-0.1-10.2,0-11.4
					c0.1-1.2,1.1-2.2,2-2.4c0.8-0.2,5.4-0.2,5.5-0.2c0,0,0,0,0,0v2.9c0,0,0,0,0,0c0,0-2.9,0-3.4,0c-0.2,0-0.3,0-0.3,0.1
					c-0.1,0.2-0.1,0.4-0.1,0.5l0,0v2.7c0,0.3,0,0.5,0.2,0.6c0.1,0.1,0.2,0.1,0.3,0.1c0.5,0,3.4,0,3.4,0c0,0,0,0,0,0v2.9c0,0,0,0,0,0
					h-3.4c-0.2,0-0.3,0-0.4,0.1c-0.1,0.1-0.1,0.3-0.1,0.4l0,0V14v0c0,0.1,0,0.3,0.1,0.5c0.1,0.1,0.2,0.1,0.3,0.1L66.3,14.7
					C66.2,14.7,66.3,14.7,66.3,14.7z"/>
				<path class="st5" d="M55.5,0.9C55.5,0.9,55.5,0.9,55.5,0.9c0,0.1,0,6.7-0.1,7.4c-0.3,3-2.2,4-2.4,4.1c-0.2,0.1-0.2,0.2-0.2,0.3
					l0,0.1c0,0.2,0,4.3,0,5.1c0,0,0,0,0,0c0,0,0,0,0,0h-3.6c0,0,0,0,0,0c0,0,0,0,0,0c0-0.8,0.1-4.9,0-5.1l0-0.1
					c0-0.1-0.1-0.3-0.2-0.3c-0.2-0.1-2.2-1.2-2.4-4.1c-0.1-0.7-0.1-7.3-0.1-7.4c0,0,0,0,0,0c0,0,0,0,0,0h3.4c0,0,0,0,0,0
					c0,0.3,0.1,7.3,0.1,7.8c0,0.3,0.2,0.8,0.6,1l0,0c0.1,0.1,0.5,0.1,0.6,0l0,0c0.5-0.3,0.6-0.7,0.6-1C52,8.2,52,1.2,52,0.9
					c0,0,0,0,0,0L55.5,0.9C55.5,0.9,55.5,0.9,55.5,0.9z"/>
				<path class="st5" d="M42.8,14.7v3c0,0,0,0,0,0c0,0-3.5,0.1-4.6,0c-1.1-0.1-2.8-1.3-2.9-3.1c0-0.7-0.1-10.2,0-11.4
					c0.1-1.2,1.1-2.2,2-2.4c0.8-0.2,5.4-0.2,5.5-0.2c0,0,0,0,0,0v2.9c0,0,0,0,0,0c0,0-2.9,0-3.4,0c-0.1,0-0.3,0-0.3,0.1
					c-0.1,0.2-0.1,0.4-0.1,0.5v0v2.7c0,0.3,0.1,0.5,0.2,0.6c0.1,0.1,0.2,0.1,0.3,0.1c0.5,0,3.4,0,3.4,0c0,0,0,0,0,0v2.9c0,0,0,0,0,0
					h-3.4c-0.2,0-0.3,0-0.4,0.1c-0.1,0.1-0.1,0.3-0.1,0.4v0V14v0c0,0.1,0,0.3,0.2,0.5c0.1,0.1,0.2,0.1,0.3,0.1L42.8,14.7
					C42.8,14.7,42.8,14.7,42.8,14.7z"/>
				<path class="st5" d="M32.1,4.6c0.1,0.8,0,13,0,13.1c0,0,0,0,0,0h-3.4c0,0,0,0,0,0c0,0,0,0,0,0c0-0.5,0-11.8,0-12.2
					c0-0.4-0.1-0.8-0.4-1.1c-0.1-0.2-0.4-0.3-0.7-0.3c-0.3,0-0.5,0.1-0.6,0.3c-0.3,0.4-0.3,0.9-0.3,1.2l0,0.1
					c0,0.4-0.1,11.7-0.1,12.1c0,0,0,0,0,0h-1.7H23c0,0,0,0,0,0c0-0.5,0-11.7-0.1-12.1V5.6c0-0.3-0.1-0.8-0.3-1.2
					c-0.1-0.2-0.4-0.3-0.6-0.3c-0.3,0-0.6,0.1-0.7,0.3c-0.3,0.3-0.3,0.8-0.4,1.1c0,0.4,0,11.7,0,12.2c0,0,0,0,0,0c0,0,0,0,0,0h-3.4
					c0,0,0,0,0,0c0-0.1-0.1-12.4,0-13.1c0.1-1.2,0.6-2.8,2.1-3.7c0.7-0.4,2.5-0.9,3.9,0.2c0.6,0.5,0.9,0.9,1.2,1.2l0.1,0.1
					c0.1,0.1,0.1,0.1,0.2,0.1c0,0,0.1,0,0.2-0.1l0.1-0.1c0.2-0.3,0.6-0.7,1.2-1.2C27.5,0,29.3,0.5,30,0.9
					C31.5,1.8,31.9,3.4,32.1,4.6z"/>
			</g>
		</g>
		<polygon id="XMLID_00000172434353325825490190000018423337883601030060_" class="st5" points="80.8,0.9 82.4,1.1 83.5,0 83.7,1.6 
			85.2,2.3 83.7,3 83.5,4.6 82.4,3.4 80.8,3.7 81.6,2.3 		"/>
		<g>
			<g>
				<path id="XMLID_00000181069439867632874010000004401456009879921806_" class="st5" d="M96.1,21.1c0.6,0,1.1,0.5,1.1,1.1
					c0,0.6-0.5,1.1-1.1,1.1c-0.6,0-1.1-0.5-1.1-1.1C95.1,21.6,95.5,21.1,96.1,21.1L96.1,21.1z M96.1,21.3c-0.5,0-0.9,0.4-0.9,0.9
					c0,0.5,0.4,0.9,0.9,0.9c0.5,0,0.9-0.4,0.9-0.9C97,21.7,96.6,21.3,96.1,21.3L96.1,21.3z M95.9,22.8h-0.2v-1.2c0.1,0,0.2,0,0.3,0
					c0.2,0,0.3,0,0.4,0.1c0.1,0.1,0.1,0.1,0.1,0.3c0,0.2-0.1,0.3-0.2,0.3v0c0.1,0,0.2,0.1,0.2,0.3c0,0.2,0.1,0.3,0.1,0.3h-0.2
					c0,0-0.1-0.1-0.1-0.3c0-0.2-0.1-0.2-0.3-0.2h-0.1V22.8z M95.9,22.2h0.1c0.2,0,0.3-0.1,0.3-0.2c0-0.1-0.1-0.2-0.3-0.2
					c-0.1,0-0.1,0-0.1,0V22.2z"/>
			</g>
		</g>
	</g>
</g>
</svg>
