<svg xmlns="http://www.w3.org/2000/svg" xmlns:xlink="http://www.w3.org/1999/xlink" viewBox="0 0 368.03 132.8"><defs><style>.cls-1{fill:none;}.cls-2{clip-path:url(#clip-path);}.cls-3{fill:#231f20;}.cls-4{fill:#fff;}</style><clipPath id="clip-path" transform="translate(0.06)"><rect class="cls-1" width="367.97" height="132.74"/></clipPath></defs><g id="Layer_2" data-name="Layer 2"><g id="Layer_1-2" data-name="Layer 1"><g class="cls-2"><path class="cls-3" d="M347.43,132.8c-.16-.05-1.09-.61-1.84-1.06a20.84,20.84,0,0,0-4.32-2.21,35.76,35.76,0,0,0-4-.81c-.35,0-5.41.89-7,2.18a9.6,9.6,0,0,1-3.2,1.9c-.16-.05-1.09-.61-1.83-1.06a21.13,21.13,0,0,0-4.33-2.21,35.76,35.76,0,0,0-4-.81c-.34,0-5.4.89-7,2.18a9.81,9.81,0,0,1-3.2,1.9c-.16-.05-1.09-.61-1.83-1.06a21.13,21.13,0,0,0-4.33-2.21,35.76,35.76,0,0,0-4-.81c-.35,0-5.41.89-7,2.18a9.7,9.7,0,0,1-3.19,1.9c-.17-.05-1.09-.61-1.84-1.06a21.13,21.13,0,0,0-4.33-2.21,35.68,35.68,0,0,0-4-.81c-.36,0-5.41.89-7,2.18a9.81,9.81,0,0,1-3.2,1.9c-.16-.05-1.09-.61-1.83-1.06a21.13,21.13,0,0,0-4.33-2.21,36.2,36.2,0,0,0-4-.81c-.35,0-5.41.89-7,2.18a9.6,9.6,0,0,1-3.2,1.9c-.16-.05-1.08-.61-1.83-1.06a20.88,20.88,0,0,0-4.33-2.21,36.12,36.12,0,0,0-4-.81c-.35,0-5.41.89-7,2.18a9.7,9.7,0,0,1-3.2,1.9c-.16-.05-1.09-.61-1.83-1.06a21.13,21.13,0,0,0-4.33-2.21,35.76,35.76,0,0,0-4-.81c-.35,0-5.41.89-7,2.18a9.81,9.81,0,0,1-3.2,1.9c-.17-.05-1.09-.61-1.84-1.06a20.88,20.88,0,0,0-4.33-2.21,35.68,35.68,0,0,0-4-.81c-.35,0-5.41.89-7,2.18a9.7,9.7,0,0,1-3.2,1.9c-.16-.05-1.09-.61-1.83-1.06a20.93,20.93,0,0,0-4.34-2.21,35.25,35.25,0,0,0-4-.81c-.34,0-5.41.89-7,2.18a9.7,9.7,0,0,1-3.19,1.9c-.17-.05-1.09-.61-1.84-1.06a20.64,20.64,0,0,0-4.33-2.21,35.68,35.68,0,0,0-4-.81c-.35,0-5.41.89-7,2.18a9.7,9.7,0,0,1-3.2,1.9c-.16-.05-1.09-.61-1.83-1.06a21.13,21.13,0,0,0-4.33-2.21,35.76,35.76,0,0,0-4-.81c-.35,0-5.4.89-7,2.18a9.6,9.6,0,0,1-3.2,1.9c-.16-.05-1.08-.61-1.83-1.06a20.64,20.64,0,0,0-4.33-2.21,35.68,35.68,0,0,0-4-.81c-.35,0-5.41.89-7,2.18a9.6,9.6,0,0,1-3.2,1.9c-.16-.05-1.09-.61-1.83-1.06a21.13,21.13,0,0,0-4.33-2.21,35.76,35.76,0,0,0-4-.81c-.34,0-5.41.89-7,2.18a9.7,9.7,0,0,1-3.21,1.9c-.16-.05-1.08-.61-1.83-1.06a20.64,20.64,0,0,0-4.33-2.21,36.12,36.12,0,0,0-4-.81c-.35,0-5.41.89-7,2.18a9.81,9.81,0,0,1-3.2,1.9c-.16-.05-1.09-.61-1.83-1.06a20.93,20.93,0,0,0-4.34-2.21,35.25,35.25,0,0,0-4-.81c-.35,0-5.41.89-7,2.18a9.7,9.7,0,0,1-3.21,1.9c-.16-.05-1.08-.61-1.83-1.06a21.13,21.13,0,0,0-4.33-2.21,35.68,35.68,0,0,0-4-.81c-.35,0-5.41.89-7,2.18a9.7,9.7,0,0,1-3.2,1.9c-.17-.05-1.09-.61-1.83-1.06A21.13,21.13,0,0,0,15,129.53a36.2,36.2,0,0,0-4-.81c-.33,0-5.33.49-6.86,1.15a16,16,0,0,1-3,1c-.39-1.71-.95-9.56-1.14-21.77L0,23.38C.19,11.46.71,3.7,1.07,1.74l1,.5C3.57,3,5.66,4.13,7,4.15l3.93,0c.36,0,5.47-.92,7.07-2.23A10.34,10.34,0,0,1,21.12,0c.12.05,1,.59,1.68,1a20.49,20.49,0,0,0,4.43,2.32,33.68,33.68,0,0,0,4.08.84c.35,0,5.46-.92,7.06-2.23A10.34,10.34,0,0,1,41.51,0c.13.05,1,.59,1.68,1a20.72,20.72,0,0,0,4.43,2.32,34.47,34.47,0,0,0,4.08.84c.36,0,5.47-.92,7.07-2.23A10.1,10.1,0,0,1,61.91,0c.12.05,1,.59,1.68,1A20.49,20.49,0,0,0,68,3.34a33.68,33.68,0,0,0,4.08.84c.35,0,5.46-.92,7.06-2.23A10.34,10.34,0,0,1,82.3,0c.13.05,1,.59,1.69,1a20.27,20.27,0,0,0,4.43,2.32,34,34,0,0,0,4.07.84c.35,0,5.47-.92,7.07-2.23A10.22,10.22,0,0,1,102.7,0c.12.05,1,.59,1.68,1a20.27,20.27,0,0,0,4.43,2.32,33.68,33.68,0,0,0,4.08.84c.35,0,5.46-.92,7.06-2.23A10.34,10.34,0,0,1,123.09,0c.13.05,1,.59,1.69,1a20,20,0,0,0,4.43,2.32,34,34,0,0,0,4.07.84c.36,0,5.47-.92,7.07-2.23A10.1,10.1,0,0,1,143.49,0c.12.05,1,.59,1.68,1a20.49,20.49,0,0,0,4.43,2.32,34.07,34.07,0,0,0,4.08.84c.35,0,5.46-.92,7.06-2.23A10.34,10.34,0,0,1,163.88,0c.13.05,1,.59,1.69,1A20.27,20.27,0,0,0,170,3.34a33.6,33.6,0,0,0,4.07.84c.35,0,5.47-.92,7.07-2.23A10.34,10.34,0,0,1,184.28,0c.12.05,1,.59,1.68,1a20.49,20.49,0,0,0,4.43,2.32,33.68,33.68,0,0,0,4.08.84c.35,0,5.46-.92,7.06-2.23A10.22,10.22,0,0,1,204.67,0c.12.05,1,.59,1.69,1a20.44,20.44,0,0,0,4.42,2.32,34.47,34.47,0,0,0,4.08.84c.36,0,5.47-.92,7.07-2.23A10.22,10.22,0,0,1,225.07,0c.12.05,1,.59,1.68,1a20.27,20.27,0,0,0,4.43,2.32,33.68,33.68,0,0,0,4.08.84c.35,0,5.46-.92,7.06-2.23A10.22,10.22,0,0,1,245.46,0c.12.05,1,.59,1.69,1a20,20,0,0,0,4.43,2.32,33.6,33.6,0,0,0,4.07.84c.36,0,5.47-.92,7.06-2.23A10.33,10.33,0,0,1,265.86,0c.12.05,1,.59,1.68,1A20.49,20.49,0,0,0,272,3.34a33.68,33.68,0,0,0,4.08.84c.35,0,5.46-.92,7.06-2.23A10.22,10.22,0,0,1,286.25,0c.13.05,1,.59,1.69,1a20.22,20.22,0,0,0,4.42,2.32,34.47,34.47,0,0,0,4.08.84c.35,0,5.47-.92,7.07-2.23A10.35,10.35,0,0,1,306.64,0c.13.05,1,.59,1.69,1a20.49,20.49,0,0,0,4.43,2.32,34,34,0,0,0,4.07.84c.36,0,5.47-.92,7.07-2.23A10.09,10.09,0,0,1,327.05,0c.12.05,1,.59,1.68,1a20.22,20.22,0,0,0,4.42,2.32,34.07,34.07,0,0,0,4.08.84c.35,0,5.47-.92,7.07-2.23A10.1,10.1,0,0,1,347.44,0c.12.05,1,.59,1.68,1a20.27,20.27,0,0,0,4.43,2.32,34,34,0,0,0,4.07.84c.35,0,5.11-.86,6.89-2.09.8,1.15,2,7.82,2.4,19.72l1,89.19c.18,11.85-.12,19.61-.45,21.61-.4-.22-1-.57-1.48-.87a21.13,21.13,0,0,0-4.33-2.21,35.76,35.76,0,0,0-4-.81c-.35,0-5.41.89-7,2.18a9.81,9.81,0,0,1-3.2,1.9" transform="translate(0.06)"/></g><path class="cls-3" d="M244.26,130.67a20.36,20.36,0,0,0-4.67-2.35,33.48,33.48,0,0,0-4.33-.86c-.44,0-5.87.91-7.79,2.46a12.67,12.67,0,0,1-2.31,1.52l-1.2-.71a20.83,20.83,0,0,0-4.76-2.41,33.63,33.63,0,0,0-4.34-.86c-.43,0-5.87.91-7.78,2.46a12.32,12.32,0,0,1-2.32,1.52l-1.28-.77a20.61,20.61,0,0,0-4.68-2.35,35.28,35.28,0,0,0-4.33-.86c-.43,0-5.87.91-7.79,2.46a12,12,0,0,1-2.32,1.52l-1.19-.71a20.63,20.63,0,0,0-4.76-2.41,33.63,33.63,0,0,0-4.34-.86c-.43,0-5.86.91-7.79,2.46a12.33,12.33,0,0,1-2.31,1.52l-1.24-.74a20.42,20.42,0,0,0-4.72-2.38,34.91,34.91,0,0,0-4.33-.86c-.43,0-5.86.91-7.78,2.46a12.65,12.65,0,0,1-2.32,1.52l-1.19-.71a20.87,20.87,0,0,0-4.77-2.41,33.63,33.63,0,0,0-4.34-.86c-.43,0-5.86.91-7.78,2.46a12.32,12.32,0,0,1-2.32,1.52l-1.27-.76a20.53,20.53,0,0,0-4.69-2.36,34.91,34.91,0,0,0-4.33-.86c-.43,0-5.87.91-7.79,2.46a12.33,12.33,0,0,1-2.31,1.52l-1.2-.71a20.83,20.83,0,0,0-4.76-2.41,35.08,35.08,0,0,0-4.34-.86c-.43,0-5.87.91-7.78,2.46a12.65,12.65,0,0,1-2.32,1.52l-1.27-.76a20.69,20.69,0,0,0-4.68-2.36,34,34,0,0,0-4.34-.86c-.43,0-5.87.91-7.78,2.46A12.65,12.65,0,0,1,62,131.44l-1.2-.71A20.83,20.83,0,0,0,56,128.32a35.08,35.08,0,0,0-4.34-.86c-.43,0-5.87.91-7.78,2.46a12.65,12.65,0,0,1-2.32,1.52l-1.27-.76a20.53,20.53,0,0,0-4.69-2.36,35.28,35.28,0,0,0-4.33-.86c-.44,0-5.87.91-7.78,2.46a12.65,12.65,0,0,1-2.32,1.52l-1.2-.71a20.83,20.83,0,0,0-4.76-2.41,35.08,35.08,0,0,0-4.34-.86c-.39,0-5.57.49-7.35,1.26-.51.22-1,.41-1.46.56-.33-3-.76-10-.91-20.2l.05-85.7c.17-10,.55-16.59.85-19.7A12.43,12.43,0,0,0,7,5.39l3.94,0c.44,0,5.93-.93,7.86-2.52A15.46,15.46,0,0,1,21,1.38l1.13.7a20.67,20.67,0,0,0,4.79,2.47,32.66,32.66,0,0,0,4.38.88c.43,0,5.92-.93,7.85-2.51a14.88,14.88,0,0,1,2.25-1.54l1.13.7a20.26,20.26,0,0,0,4.78,2.47,33.3,33.3,0,0,0,4.38.88c.44,0,5.93-.93,7.86-2.52A15.46,15.46,0,0,1,61.8,1.38l1.14.7a20.62,20.62,0,0,0,4.78,2.47,32.66,32.66,0,0,0,4.38.88c.44,0,5.92-.93,7.86-2.51A14,14,0,0,1,82.2,1.38l1.13.7a20.12,20.12,0,0,0,4.79,2.47,32.52,32.52,0,0,0,4.37.88c.44,0,5.93-.93,7.86-2.52a14.89,14.89,0,0,1,2.25-1.53l1.13.7a19.88,19.88,0,0,0,4.78,2.47,32.66,32.66,0,0,0,4.38.88c.44,0,5.92-.93,7.86-2.51A14,14,0,0,1,123,1.39l1.09.67a20.79,20.79,0,0,0,4.82,2.49,33.3,33.3,0,0,0,4.38.88c.44,0,5.93-.93,7.86-2.52a14.89,14.89,0,0,1,2.25-1.53l1.12.7a20.12,20.12,0,0,0,4.79,2.47,32.66,32.66,0,0,0,4.38.88c.44,0,5.92-.93,7.86-2.51a14,14,0,0,1,2.24-1.54l1.15.72a20.39,20.39,0,0,0,4.76,2.45,33.3,33.3,0,0,0,4.38.88c.44,0,5.93-.93,7.86-2.52a14.89,14.89,0,0,1,2.25-1.53l1.13.7a19.88,19.88,0,0,0,4.78,2.47,32.66,32.66,0,0,0,4.38.88c.43,0,5.93-.93,7.86-2.52a14,14,0,0,1,2.24-1.52l1.12.69a20.5,20.5,0,0,0,4.79,2.47,33.3,33.3,0,0,0,4.38.88c.44,0,5.93-.93,7.86-2.52A15.46,15.46,0,0,1,225,1.38l1.09.68a20.41,20.41,0,0,0,4.82,2.49,33.12,33.12,0,0,0,4.39.88c.43,0,5.92-.93,7.86-2.52a14.93,14.93,0,0,1,2.24-1.53l1.09.68a21,21,0,0,0,4.82,2.49,33,33,0,0,0,4.38.88c.44,0,5.93-.93,7.86-2.52a15.46,15.46,0,0,1,2.24-1.53l1.1.68a20.92,20.92,0,0,0,4.81,2.49,33.12,33.12,0,0,0,4.39.88c.43,0,5.92-.93,7.85-2.52a14.89,14.89,0,0,1,2.25-1.53l1.09.68a20.77,20.77,0,0,0,4.82,2.49,33.3,33.3,0,0,0,4.38.88c.44,0,5.93-.93,7.86-2.52a14.89,14.89,0,0,1,2.25-1.53l1.08.68a21,21,0,0,0,4.83,2.49,32.84,32.84,0,0,0,4.37.88c.44,0,5.93-.93,7.87-2.52a14.93,14.93,0,0,1,2.24-1.53l1.13.7a20.62,20.62,0,0,0,4.78,2.47,32.66,32.66,0,0,0,4.38.88c.44,0,5.93-.93,7.86-2.52a15.46,15.46,0,0,1,2.24-1.53l1.1.68a20.17,20.17,0,0,0,4.81,2.49,33.3,33.3,0,0,0,4.38.88,26.89,26.89,0,0,0,6.23-1.59c.61,2.27,1.5,8.05,1.81,18l1,89.16c.15,9.77,0,16.34-.26,19.52a19.05,19.05,0,0,0-4.45-2.22,33.3,33.3,0,0,0-4.34-.86c-.43,0-5.86.91-7.78,2.46a12.33,12.33,0,0,1-2.31,1.52l-1.2-.71a20.83,20.83,0,0,0-4.76-2.41,34,34,0,0,0-4.34-.86c-.43,0-5.86.91-7.78,2.46a12.65,12.65,0,0,1-2.32,1.52l-1.2-.71a20.63,20.63,0,0,0-4.76-2.41,33.3,33.3,0,0,0-4.34-.86c-.42,0-5.86.91-7.77,2.46a12.65,12.65,0,0,1-2.32,1.52l-1.2-.71a20.48,20.48,0,0,0-4.77-2.41,33.48,33.48,0,0,0-4.33-.86c-.43,0-5.86.91-7.78,2.46a13,13,0,0,1-2.31,1.52l-1.3-.77a20.76,20.76,0,0,0-4.66-2.35,34,34,0,0,0-4.34-.86c-.44,0-5.87.91-7.79,2.46a12.67,12.67,0,0,1-2.31,1.52l-1.2-.71a20.67,20.67,0,0,0-4.77-2.41,33.15,33.15,0,0,0-4.33-.86c-.43,0-5.86.91-7.78,2.46a13,13,0,0,1-2.31,1.52l-1.3-.77" transform="translate(0.06)"/><path class="cls-4" d="M89.59,11.63c0-.05-1.11-.1.69-.12,5.66,0,10.21.16,15.87.14l.41-.08,13.62.17,25.64,0c-.23,0-.33-.06.52-.06l13.51.06h2.24a4,4,0,0,0,.82-.06l6.23,0c24.92-.08,50.23-.22,77.67-.46L264,11.06l26.93-.14c-1.24-.26,18.44-.63,14.5-.88,5.39-.06,13.47-.2,13.88-.29,1.24-.29,5.39-.57,19.65-1.21,5.58-.21,14.14-.64,16-1,1.53-.25-.26,0-2,.1s-3.59.2-2.06,0c-10.3.71-20.61.9-30.85,1.13s-20.45.32-30.67.42c-20.43.19-40.9.26-61.83.27-14.24.2-110.35-.08-135-.26H90.26c-13.47-.06-29.83-.1-41.23,0L33.2,9.44l6.71.14c-5.39,0-10.77,0-12.84.05-11.47.16-5,.28-.56.46,3.17.08-1.12.22,3.85.3h-9c-.42.08,11.06-.07,8.56.07-3.45,0-7.32,0-10.91,0,1.25.1,12.43,0,11.88.11-1.94,0-10.08-.12-10.77,0-.14,0,3.45,0,5.24,0-11,.07-17.12.28-7,.34-3.5,0-8.45,0-12.15.09h0l6.73,0-6.3.07,1.11,0,4.78,0-4.18,0,3.55.08,12.43.14" transform="translate(0.06)"/><path class="cls-4" d="M8.12,96S8,96.36,8,95.8c0-1.77.17-3.18.14-5l-.07-.13.16-4.25c0-2.68,0-5.31.06-8,0,.07-.06.1-.06-.16,0-1.11.06-2.63.13-4.21v-.69a.69.69,0,0,0,0-.26l.08-1.94c.11-7.76.31-15.64.52-24.19,0-1.81,0-3.62.05-5.36l.37-8.39c-.3.38-.24-5.76-.57-4.54.06-1.68.12-4.19,0-4.32-.24-.4-.47-1.7-.56-6.14,0-1.74.09-4.41,0-5-.07-1-.18,2.25-.25,1.28C7.91,27.49,7.43,39.94,6.82,53L6.12,72.8c-.32,9-.27,18.44-.4,22.28v.7c-.08,4.19-.12,9.3,0,12.86.09,1.64.2,3.3.33,5,0-.77,0-1.48.09-2.1,0,1.68.07,3.36.16,4,.27,3.58.33,1.54.46.16,0-1,.23.34.26-1.22l.1,2.8c.09.12-.18-3.44,0-2.67,0,1.08.1,2.28.16,3.39.08-.39-.13-3.86,0-3.7a29.76,29.76,0,0,0,.13,3.35s0-1.07,0-1.63c.2,3.43.47,5.3.42,2.17,0,1.09.11,2.62.21,3.77v0l-.11-2.08.13,2,0-.35L8,119.94l.09,1.3,0-1.11c0-1.55,0-3,0-3.86-.23-6.72-.11-13.5,0-20.26" transform="translate(0.06)"/><path class="cls-4" d="M357.43,34.72c.05,0,.1-.33.12.21,0,1.7-.15,3.07-.12,4.77l.08.12-.15,4.09,0,7.71c0-.07.06-.1.06.15,0,1.06,0,2.54,0,4.06l0,.67a.72.72,0,0,0,.06.25v1.87L358.09,82c.08,1.74.16,3.48.2,5.16,0,2.49,0,5.65,0,8.08.29-.37.43,5.54.72,4.36,0,1.62,0,4,.07,4.17.24.37.52,1.62.65,5.91,0,1.69-.1,4.27-.06,4.86.07.93.19-2.18.26-1.24.19-12.5,0-24.52,0-37.1-.16-4.27-.26-33.13-.06-40.53V35c.07-4,.14-9,.14-12.36l0-4.74-.24,2c.07-1.61.17-3.22.16-3.84.12-3.42-.16-1.51-.45-.2-.15,1-.2-.35-.38,1.14l.2-2.69c-.09-.13-.19,3.32-.27,2.56.1-1,.12-2.2.22-3.27-.17.36-.31,3.72-.4,3.55,0-.58.34-3,.23-3.24,0,0-.11,1-.15,1.58.2-3.32.37-5.2-.15-2.15.06-.53.14-1.17.25-1.82a8.36,8.36,0,0,1,.51-2l0,0a8.78,8.78,0,0,0-.54,2.17,9.28,9.28,0,0,1,.45-2c-.07.12-.13.24-.19.37a9.25,9.25,0,0,0-.32,1.51c.06-.43.13-.86.24-1.32-.12.34-.24.71-.34,1.11-.31,1.53-.53,3-.6,3.77-.49,6.57-.62,13.12-.73,19.65" transform="translate(0.06)"/><path class="cls-4" d="M348.77,68.51c-.78,1.15-5.15,5.91-24.43,7.3L305.12,33.43h-.29L275.62,97.62h9.23l6.34-15H318.4l6.33,15h9.5l-7.62-16.78c8.7-1.63,18.14-5.08,22.16-12.33m-44-18.13,10.82,25.49H294Z" transform="translate(0.06)"/><path class="cls-4" d="M348.77,68.51a1.48,1.48,0,0,0,.16-.25c-.05.09-.11.17-.16.25" transform="translate(0.06)"/><path class="cls-4" d="M57.65,33.43,37.9,76.85c-9.39,1.39-20.55,4.76-25,12.81.76-1.11,4.86-5.57,22.44-7.13l0,.11-6.82,15h9.23l6.34-15H71.23l6.33,15h9.5L57.93,33.43h-.28M46.79,75.87,57.62,50.38,68.44,75.87Z" transform="translate(0.06)"/><polyline class="cls-4" points="105.43 34.32 96.34 34.32 96.34 97.63 134.14 97.63 134.14 89.51 105.43 89.51 105.43 34.32"/><polyline class="cls-4" points="143.59 97.63 181.39 97.63 181.39 89.51 152.68 89.51 152.68 69.36 178.63 69.36 178.63 61.6 152.68 61.6 152.68 42.43 181.39 42.43 181.39 34.32 143.59 34.32 143.59 97.63"/><polyline class="cls-4" points="246.59 34.32 236.09 34.32 219.05 59.66 202.19 34.32 191.33 34.32 213.44 66.38 191.35 97.63 201.92 97.63 218.88 72.28 235.75 97.63 246.62 97.63 224.5 65.47 246.59 34.32"/><rect class="cls-4" x="257.27" y="34.32" width="9.1" height="63.31"/></g></g></svg>